<svg id="eacUe2Gjzkl1" xmlns="http://www.w3.org/2000/svg" xmlns:xlink="http://www.w3.org/1999/xlink" viewBox="0 0 893 797" shape-rendering="geometricPrecision" text-rendering="geometricPrecision" style="background-color:#2c4e45"><defs><linearGradient id="eacUe2Gjzkl4-stroke" x1="0" y1="0.5" x2="1" y2="0.5" spreadMethod="pad" gradientUnits="objectBoundingBox" gradientTransform="translate(0 0)"><stop id="eacUe2Gjzkl4-stroke-0" offset="0%" stop-color="#23b38d"/><stop id="eacUe2Gjzkl4-stroke-1" offset="100%" stop-color="#d3b1ba"/></linearGradient><linearGradient id="eacUe2Gjzkl7-stroke" x1="0" y1="0.5" x2="1" y2="0.5" spreadMethod="pad" gradientUnits="objectBoundingBox" gradientTransform="translate(0 0)"><stop id="eacUe2Gjzkl7-stroke-0" offset="0%" stop-color="#23b38d"/><stop id="eacUe2Gjzkl7-stroke-1" offset="100%" stop-color="#d3b1ba"/></linearGradient><linearGradient id="eacUe2Gjzkl9-stroke" x1="0" y1="0.5" x2="1" y2="0.5" spreadMethod="pad" gradientUnits="objectBoundingBox" gradientTransform="translate(0 0)"><stop id="eacUe2Gjzkl9-stroke-0" offset="0%" stop-color="#23b38d"/><stop id="eacUe2Gjzkl9-stroke-1" offset="100%" stop-color="#d3b1ba"/></linearGradient><linearGradient id="eacUe2Gjzkl11-stroke" x1="0" y1="0.5" x2="1" y2="0.5" spreadMethod="pad" gradientUnits="objectBoundingBox" gradientTransform="translate(0 0)"><stop id="eacUe2Gjzkl11-stroke-0" offset="0%" stop-color="#23b38d"/><stop id="eacUe2Gjzkl11-stroke-1" offset="100%" stop-color="#d3b1ba"/></linearGradient><linearGradient id="eacUe2Gjzkl13-stroke" x1="0" y1="0.5" x2="1" y2="0.5" spreadMethod="pad" gradientUnits="objectBoundingBox" gradientTransform="translate(0 0)"><stop id="eacUe2Gjzkl13-stroke-0" offset="0%" stop-color="#23b38d"/><stop id="eacUe2Gjzkl13-stroke-1" offset="100%" stop-color="#d3b1ba"/></linearGradient></defs><g id="eacUe2Gjzkl2"><path d="M0,0h893v797h-893L0,0Z" fill="#fff" fill-opacity="0" stroke-linecap="square" stroke-miterlimit="10"/><path d="M-212.198038,-339.667783h1333.690869v1373.274084h-1333.690869v-1373.274084Z" fill="#2c4e45" stroke="url(#eacUe2Gjzkl4-stroke)" stroke-linecap="square" stroke-miterlimit="10"/><path d="M447,399c0,0,0,0,0,0s0,0,0,0s0,0,0,0s0,0,0,0" fill="none" stroke="#ccc" stroke-miterlimit="10"/><path d="M427.0625,392.35938q0,1.90624-.65625,2.84374-.64063.92188-2.03125.92188-1.35938,0-2.01562-.90625t-.6875-2.71875v-1.4375q0-1.89062.64062-2.79688.65625-.92187,2.04688-.92187q1.375,0,2.03124.89063.65626.875.67188,2.71874v1.40626Zm-1.09375-1.48438q0-1.375-.39063-2-.375-.64062-1.21874-.64062-.82813,0-1.21876.64062-.375.625-.375,1.92188v1.73437q0,1.375.39063,2.04687.40625.65626,1.21875.65626.79688,0,1.1875-.625t.40625-1.95313v-1.78125Zm2.875,4.5625q0-.28125.15625-.46875.17188-.1875.5-.1875.34375,0,.51562.1875t.17188.46875q0,.26562-.17188.45312-.17187.17188-.51562.17188-.32812,0-.5-.17188-.15625-.1875-.15625-.45312Zm8.21875-3.07812q0,1.90624-.65625,2.84374-.64063.92188-2.03125.92188-1.35938,0-2.01562-.90625t-.6875-2.71875v-1.4375q0-1.89062.64062-2.79688.65625-.92187,2.04688-.92187q1.375,0,2.03124.89063.65626.875.67188,2.71874v1.40626Zm-1.09375-1.48438q0-1.375-.39063-2-.375-.64062-1.21874-.64062-.82813,0-1.21876.64062-.375.625-.375,1.92188v1.73437q0,1.375.39063,2.04687.40625.65626,1.21875.65626.79688,0,1.1875-.625t.40625-1.95313v-1.78125Zm8.09375,1.48438q0,1.90624-.65625,2.84374-.64063.92188-2.03125.92188-1.35938,0-2.01562-.90625t-.6875-2.71875v-1.4375q0-1.89062.64062-2.79688.65625-.92187,2.04688-.92187q1.375,0,2.03124.89063.65626.875.67188,2.71874v1.40626Zm-1.09375-1.48438q0-1.375-.39063-2-.375-.64062-1.21874-.64062-.82813,0-1.21876.64062-.375.625-.375,1.92188v1.73437q0,1.375.39063,2.04687.40625.65626,1.21875.65626.79688,0,1.1875-.625t.40625-1.95313v-1.78125Z" transform="translate(.000001 0)" fill="#fff" stroke-linecap="square" stroke-miterlimit="10"/><path d="M538.625,399c0-50.6031-41.0219-91.625-91.625-91.625s-91.625,41.0219-91.625,91.625s41.0219,91.625,91.625,91.625s91.625-41.0219,91.625-91.625" fill="none" stroke="url(#eacUe2Gjzkl7-stroke)" stroke-miterlimit="10"/><path d="M408.20312,300.09375l.4375-4.25h4.375v1h-3.45312l-.26562,2.32813q.64062-.375,1.4375-.375q1.15624,0,1.84374.78124.6875.76563.6875,2.07813t-.71874,2.07813q-.70313.76562-1.98438.76562-1.125,0-1.84375-.625-.71875-.64062-.8125-1.75h1.01563q.10937.73438.53124,1.10938t1.10938.375q.75,0,1.1875-.51563t.4375-1.42187q0-.85938-.46875-1.375t-1.25-.51563q-.70313,0-1.10937.29687l-.28126.23438-.875-.21875Zm11.85938.64063q0,1.90624-.65625,2.84374-.64063.92188-2.03125.92188-1.35938,0-2.01562-.90625t-.6875-2.71875v-1.4375q0-1.89062.64062-2.79688.65625-.92187,2.04688-.92187q1.375,0,2.03124.89063.65626.875.67188,2.71874v1.40626ZM418.96875,299.25q0-1.375-.39063-2-.375-.64062-1.21874-.64062-.82813,0-1.21876.64062-.375.625-.375,1.92188v1.73437q0,1.375.39063,2.04687.40625.65626,1.21875.65626.79688,0,1.1875-.625t.40625-1.95313v-1.78125Zm8.09375,1.48438q0,1.90624-.65625,2.84374-.64063.92188-2.03125.92188-1.35938,0-2.01562-.90625t-.6875-2.71875v-1.4375q0-1.89062.64062-2.79688.65625-.92187,2.04688-.92187q1.375,0,2.03124.89063.65626.875.67188,2.71874v1.40626ZM425.96875,299.25q0-1.375-.39063-2-.375-.64062-1.21874-.64062-.82813,0-1.21876.64062-.375.625-.375,1.92188v1.73437q0,1.375.39063,2.04687.40625.65626,1.21875.65626.79688,0,1.1875-.625t.40625-1.95313v-1.78125Zm2.875,4.5625q0-.28125.15625-.46875.17188-.1875.5-.1875.34375,0,.51562.1875t.17188.46875q0,.26562-.17188.45312-.17187.17188-.51562.17188-.32812,0-.5-.17188-.15625-.1875-.15625-.45312Zm8.21875-3.07812q0,1.90624-.65625,2.84374-.64063.92188-2.03125.92188-1.35938,0-2.01562-.90625t-.6875-2.71875v-1.4375q0-1.89062.64062-2.79688.65625-.92187,2.04688-.92187q1.375,0,2.03124.89063.65626.875.67188,2.71874v1.40626ZM435.96875,299.25q0-1.375-.39063-2-.375-.64062-1.21874-.64062-.82813,0-1.21876.64062-.375.625-.375,1.92188v1.73437q0,1.375.39063,2.04687.40625.65626,1.21875.65626.79688,0,1.1875-.625t.40625-1.95313v-1.78125Zm8.09375,1.48438q0,1.90624-.65625,2.84374-.64063.92188-2.03125.92188-1.35938,0-2.01562-.90625t-.6875-2.71875v-1.4375q0-1.89062.64062-2.79688.65625-.92187,2.04688-.92187q1.375,0,2.03124.89063.65626.875.67188,2.71874v1.40626ZM442.96875,299.25q0-1.375-.39063-2-.375-.64062-1.21874-.64062-.82813,0-1.21876.64062-.375.625-.375,1.92188v1.73437q0,1.375.39063,2.04687.40625.65626,1.21875.65626.79688,0,1.1875-.625t.40625-1.95313v-1.78125Z" fill="#fff" stroke-linecap="square" stroke-miterlimit="10"/><path d="M630.25,399c0-101.20618-82.0438-183.25-183.25-183.25s-183.25,82.04382-183.25,183.25s82.04382,183.25,183.25,183.25s183.25-82.04382,183.25-183.25" fill="none" stroke="url(#eacUe2Gjzkl9-stroke)" stroke-miterlimit="10"/><path d="M404.26562,212.75h-1.07812v-7.21875L401,206.32812v-.98437l3.10938-1.17187h.15624v8.57812Zm8.79688-3.64062q0,1.90624-.65625,2.84374-.64063.92188-2.03125.92188-1.35938,0-2.01562-.90625t-.6875-2.71875v-1.4375q0-1.89062.64062-2.79688.65625-.92187,2.04688-.92187q1.375,0,2.03124.89063.65626.875.67188,2.71874v1.40626Zm-1.09375-1.48438q0-1.375-.39063-2-.375-.64062-1.21874-.64062-.82813,0-1.21876.64062-.375.625-.375,1.92188v1.73437q0,1.375.39063,2.04687.40625.65626,1.21875.65626.79688,0,1.1875-.625t.40625-1.95313v-1.78125Zm8.09375,1.48438q0,1.90624-.65625,2.84374-.64063.92188-2.03125.92188-1.35938,0-2.01562-.90625t-.6875-2.71875v-1.4375q0-1.89062.64062-2.79688.65625-.92187,2.04688-.92187q1.375,0,2.03124.89063.65626.875.67188,2.71874v1.40626Zm-1.09375-1.48438q0-1.375-.39063-2-.375-.64062-1.21874-.64062-.82813,0-1.21876.64062-.375.625-.375,1.92188v1.73437q0,1.375.39063,2.04687.40625.65626,1.21875.65626.79688,0,1.1875-.625t.40625-1.95313v-1.78125Zm8.09375,1.48438q0,1.90624-.65625,2.84374-.64063.92188-2.03125.92188-1.35938,0-2.01562-.90625t-.6875-2.71875v-1.4375q0-1.89062.64062-2.79688.65625-.92187,2.04688-.92187q1.375,0,2.03124.89063.65626.875.67188,2.71874v1.40626Zm-1.09375-1.48438q0-1.375-.39063-2-.375-.64062-1.21874-.64062-.82813,0-1.21876.64062-.375.625-.375,1.92188v1.73437q0,1.375.39063,2.04687.40625.65626,1.21875.65626.79688,0,1.1875-.625t.40625-1.95313v-1.78125Zm2.875,4.5625q0-.28125.15625-.46875.17188-.1875.5-.1875.34375,0,.51562.1875t.17188.46875q0,.26562-.17188.45312-.17187.17188-.51562.17188-.32812,0-.5-.17188-.15625-.1875-.15625-.45312Zm8.21875-3.07812q0,1.90624-.65625,2.84374-.64063.92188-2.03125.92188-1.35938,0-2.01562-.90625t-.6875-2.71875v-1.4375q0-1.89062.64062-2.79688.65625-.92187,2.04688-.92187q1.375,0,2.03124.89063.65626.875.67188,2.71874v1.40626Zm-1.09375-1.48438q0-1.375-.39063-2-.375-.64062-1.21874-.64062-.82813,0-1.21876.64062-.375.625-.375,1.92188v1.73437q0,1.375.39063,2.04687.40625.65626,1.21875.65626.79688,0,1.1875-.625t.40625-1.95313v-1.78125Zm8.09375,1.48438q0,1.90624-.65625,2.84374-.64063.92188-2.03125.92188-1.35938,0-2.01562-.90625t-.6875-2.71875v-1.4375q0-1.89062.64062-2.79688.65625-.92187,2.04688-.92187q1.375,0,2.03124.89063.65626.875.67188,2.71874v1.40626Zm-1.09375-1.48438q0-1.375-.39063-2-.375-.64062-1.21874-.64062-.82813,0-1.21876.64062-.375.625-.375,1.92188v1.73437q0,1.375.39063,2.04687.40625.65626,1.21875.65626.79688,0,1.1875-.625t.40625-1.95313v-1.78125Z" fill="#fff" stroke-linecap="square" stroke-miterlimit="10"/><path d="M721.875,399c0-151.80927-123.06573-274.875-274.875-274.875s-274.875,123.06573-274.875,274.875s123.06573,274.875,274.875,274.875s274.875-123.06573,274.875-274.875" fill="none" stroke="url(#eacUe2Gjzkl11-stroke)" stroke-miterlimit="10"/><path d="M404.26562,121.125h-1.07812v-7.21875L401,114.703125v-.984375l3.10938-1.171875h.15624v8.578125Zm3.9375-4.28125l.4375-4.25h4.375v1h-3.45312l-.26562,2.328125q.64062-.375,1.4375-.375q1.15624,0,1.84374.78125.6875.765625.6875,2.078125t-.71874,2.078125q-.70313.765625-1.98438.765625-1.125,0-1.84375-.625-.71875-.640625-.8125-1.75h1.01563q.10937.734375.53124,1.109375t1.10938.375q.75,0,1.1875-.515625t.4375-1.421875q0-.859375-.46875-1.375t-1.25-.515625q-.70313,0-1.10937.296875l-.28126.234375-.875-.21875Zm11.85938.640625q0,1.90625-.65625,2.84375-.64063.921875-2.03125.921875-1.35938,0-2.01562-.90625t-.6875-2.71875v-1.4375q0-1.890625.64062-2.796875.65625-.921875,2.04688-.921875q1.375,0,2.03124.890625.65626.875.67188,2.71875v1.40625ZM418.96875,116q0-1.375-.39063-2-.375-.640625-1.21874-.640625-.82813,0-1.21876.640625-.375.625-.375,1.921875v1.734375q0,1.375.39063,2.046875.40625.65625,1.21875.65625.79688,0,1.1875-.625t.40625-1.953125v-1.78125Zm8.09375,1.484375q0,1.90625-.65625,2.84375-.64063.921875-2.03125.921875-1.35938,0-2.01562-.90625t-.6875-2.71875v-1.4375q0-1.890625.64062-2.796875.65625-.921875,2.04688-.921875q1.375,0,2.03124.890625.65626.875.67188,2.71875v1.40625ZM425.96875,116q0-1.375-.39063-2-.375-.640625-1.21874-.640625-.82813,0-1.21876.640625-.375.625-.375,1.921875v1.734375q0,1.375.39063,2.046875.40625.65625,1.21875.65625.79688,0,1.1875-.625t.40625-1.953125v-1.78125Zm2.875,4.5625q0-.28125.15625-.46875.17188-.1875.5-.1875.34375,0,.51562.1875t.17188.46875q0,.265625-.17188.453125-.17187.171875-.51562.171875-.32812,0-.5-.171875-.15625-.1875-.15625-.453125Zm8.21875-3.078125q0,1.90625-.65625,2.84375-.64063.921875-2.03125.921875-1.35938,0-2.01562-.90625t-.6875-2.71875v-1.4375q0-1.890625.64062-2.796875.65625-.921875,2.04688-.921875q1.375,0,2.03124.890625.65626.875.67188,2.71875v1.40625ZM435.96875,116q0-1.375-.39063-2-.375-.640625-1.21874-.640625-.82813,0-1.21876.640625-.375.625-.375,1.921875v1.734375q0,1.375.39063,2.046875.40625.65625,1.21875.65625.79688,0,1.1875-.625t.40625-1.953125v-1.78125Zm8.09375,1.484375q0,1.90625-.65625,2.84375-.64063.921875-2.03125.921875-1.35938,0-2.01562-.90625t-.6875-2.71875v-1.4375q0-1.890625.64062-2.796875.65625-.921875,2.04688-.921875q1.375,0,2.03124.890625.65626.875.67188,2.71875v1.40625ZM442.96875,116q0-1.375-.39063-2-.375-.640625-1.21874-.640625-.82813,0-1.21876.640625-.375.625-.375,1.921875v1.734375q0,1.375.39063,2.046875.40625.65625,1.21875.65625.79688,0,1.1875-.625t.40625-1.953125v-1.78125Z" fill="#fff" stroke-linecap="square" stroke-miterlimit="10"/><path d="M813.5,399C813.5,196.58765,649.41235,32.5,447,32.5s-366.5,164.08765-366.5,366.5s164.08765,366.5,366.5,366.5s366.5-164.08765,366.5-366.5" fill="none" stroke="url(#eacUe2Gjzkl13-stroke)" stroke-miterlimit="10"/><path d="M406.29688,29.5h-5.59376v-.78125l2.95313-3.28125q.65625-.75.90625-1.203125.25-.46875.25-.96875q0-.671875-.40625-1.09375-.39063-.4375-1.07813-.4375-.79687,0-1.25.46875-.45312.453125-.45312,1.28125h-1.07812q0-1.1875.75-1.90625.76562-.734375,2.03124-.734375q1.20313,0,1.89063.625t.6875,1.671875q0,1.25-1.60937,3l-2.28126,2.46875h4.28126v.890625Zm6.76562-3.640625q0,1.90625-.65625,2.84375-.64063.921875-2.03125.921875-1.35938,0-2.01562-.90625t-.6875-2.71875v-1.4375q0-1.890625.64062-2.796875.65625-.921875,2.04688-.921875q1.375,0,2.03124.890625.65626.875.67188,2.71875v1.40625ZM411.96875,24.375q0-1.375-.39063-2-.375-.640625-1.21874-.640625-.82813,0-1.21876.640625-.375.625-.375,1.921875v1.734375q0,1.375.39063,2.046875.40625.65625,1.21875.65625.79688,0,1.1875-.625t.40625-1.953125v-1.78125Zm8.09375,1.484375q0,1.90625-.65625,2.84375-.64063.921875-2.03125.921875-1.35938,0-2.01562-.90625t-.6875-2.71875v-1.4375q0-1.890625.64062-2.796875.65625-.921875,2.04688-.921875q1.375,0,2.03124.890625.65626.875.67188,2.71875v1.40625ZM418.96875,24.375q0-1.375-.39063-2-.375-.640625-1.21874-.640625-.82813,0-1.21876.640625-.375.625-.375,1.921875v1.734375q0,1.375.39063,2.046875.40625.65625,1.21875.65625.79688,0,1.1875-.625t.40625-1.953125v-1.78125Zm8.09375,1.484375q0,1.90625-.65625,2.84375-.64063.921875-2.03125.921875-1.35938,0-2.01562-.90625t-.6875-2.71875v-1.4375q0-1.890625.64062-2.796875.65625-.921875,2.04688-.921875q1.375,0,2.03124.890625.65626.875.67188,2.71875v1.40625ZM425.96875,24.375q0-1.375-.39063-2-.375-.640625-1.21874-.640625-.82813,0-1.21876.640625-.375.625-.375,1.921875v1.734375q0,1.375.39063,2.046875.40625.65625,1.21875.65625.79688,0,1.1875-.625t.40625-1.953125v-1.78125Zm2.875,4.5625q0-.28125.15625-.46875.17188-.1875.5-.1875.34375,0,.51562.1875t.17188.46875q0,.265625-.17188.453125-.17187.171875-.51562.171875-.32812,0-.5-.171875-.15625-.1875-.15625-.453125Zm8.21875-3.078125q0,1.90625-.65625,2.84375-.64063.921875-2.03125.921875-1.35938,0-2.01562-.90625t-.6875-2.71875v-1.4375q0-1.890625.64062-2.796875.65625-.921875,2.04688-.921875q1.375,0,2.03124.890625.65626.875.67188,2.71875v1.40625ZM435.96875,24.375q0-1.375-.39063-2-.375-.640625-1.21874-.640625-.82813,0-1.21876.640625-.375.625-.375,1.921875v1.734375q0,1.375.39063,2.046875.40625.65625,1.21875.65625.79688,0,1.1875-.625t.40625-1.953125v-1.78125Zm8.09375,1.484375q0,1.90625-.65625,2.84375-.64063.921875-2.03125.921875-1.35938,0-2.01562-.90625t-.6875-2.71875v-1.4375q0-1.890625.64062-2.796875.65625-.921875,2.04688-.921875q1.375,0,2.03124.890625.65626.875.67188,2.71875v1.40625ZM442.96875,24.375q0-1.375-.39063-2-.375-.640625-1.21874-.640625-.82813,0-1.21876.640625-.375.625-.375,1.921875v1.734375q0,1.375.39063,2.046875.40625.65625,1.21875.65625.79688,0,1.1875-.625t.40625-1.953125v-1.78125Z" transform="translate(.000001 0)" fill="#fff" stroke-linecap="square" stroke-miterlimit="10"/><path d="M447,399v-366" fill="none" stroke="#ccc" stroke-miterlimit="10"/><path d="M447,399L706,140" fill="none" stroke="#ccc" stroke-miterlimit="10"/><path d="M447,399h367" fill="none" stroke="#ccc" stroke-miterlimit="10"/><path d="M447,399L706,658" fill="none" stroke="#ccc" stroke-miterlimit="10"/><path d="M447,399v367" fill="none" stroke="#ccc" stroke-miterlimit="10"/><path d="M447,399L188,658" fill="none" stroke="#ccc" stroke-miterlimit="10"/><path d="M447,399h-366" fill="none" stroke="#ccc" stroke-miterlimit="10"/><path d="M447,399L188,140" fill="none" stroke="#ccc" stroke-miterlimit="10"/><path d="M447,399v-366" fill="none" stroke="#ccc" stroke-miterlimit="10"/><path d="M447,381c4,4,6,8,5,13-1,2-3,4-5,5c0,0,0,0,0,0s0,0,0,0c-13,47-48,84-103,103c19-55,56-90,103-103c0,0,0,0,0,0-3-5-3-12,0-18Z" fill="none" stroke="#4285f4" stroke-miterlimit="10"/><path d="M447,383c3,4,4,9,3,13-1,2-2,3-3,3c0,0,0,0,0,0s0,0,0,0c-8,29-30,52-64,64c12-34,35-56,64-64c0,0,0,0,0,0-3-5-3-10,0-16Z" fill="none" stroke="#ea4335" stroke-miterlimit="10"/><path d="M447,305c18,27,23,55,15,79c0,6-2,12-5,15-4,2-7,2-10,0c3,5,3,12,0,18-23,68-79,120-162,144c26-84,81-140,151-162c4-2,8-2,11,0-16-27-16-61,0-94Z" fill="none" stroke="#fbbc04" stroke-miterlimit="10"/><path d="M447,390c2,2,3,4,3,6-1,2-2,3-3,3c0,0,0,0,0,0s0,0,0,0c-7,28-29,50-61,61c11-32,33-54,61-61c0,0,0,0,0,0-2-3-2-6,0-9Z" fill="none" stroke="#34a853" stroke-miterlimit="10"/><path d="M447,364c7,8,10,17,9,26-2,5-5,8-9,9c0,0,0,0,0,0s0,0,0,0c-16,60-63,108-133,133c25-70,73-117,133-133c0,0,0,0,0,0-6-10-6-23,0-35Z" fill="none" stroke="#ff6d01" stroke-miterlimit="10"/><path d="M447,380c4,4,5,10,4,15c0,2-2,3-4,4c0,0,0,0,0,0s0,0,0,0c-7,28-29,50-61,61c11-32,33-54,61-61c0,0,0,0,0,0-3-6-3-13,0-19Z" fill="none" stroke="#46bdc6" stroke-miterlimit="10"/><path d="M447,383c3,3,5,7,5,11-1,3-3,4-5,5c0,0,0,0,0,0s0,0,0,0c-14,53-55,95-117,117c22-62,64-103,117-117c0,0,0,0,0,0-3-5-3-10,0-16Z" fill="none" stroke="#7baaf7" stroke-miterlimit="10"/><path d="M447,337c14,11,21,25,23,39-1,10-6,19-13,23c6,4,10,12,12,22-12-4-19-12-22-22-21,79-82,142-174,174c29-90,89-151,165-174c1-2,3-4,5-4-8-18-7-38,4-58Z" fill="none" stroke="#f07b72" stroke-miterlimit="10"/><path d="M447,309c18,22,25,47,21,69-4,11-12,18-21,21c0,0,0,0,0,0s0,0,0,0c-22,82-85,146-179,179c22-89,75-151,144-179c12-6,25-6,35,0-15-26-16-58,0-90Z" fill="none" stroke="#fcd04f" stroke-miterlimit="10"/><path d="M447,383c4,2,6,5,7,9-1,4-4,6-7,7c0,0,0,0,0,0s0,0,0,0c-9,33-34,59-72,72c13-38,39-63,72-72c0,0,0,0,0,0-3-5-3-10,0-16Z" fill="none" stroke="#71c287" stroke-miterlimit="10"/><path d="M447,343c11,15,15,31,11,45c1,4,0,8-1,11-4,2-7,2-10,0c3,5,3,12,0,18-23,68-80,120-163,145c30-86,89-143,163-163c0,0,0,0,0,0-9-16-10-36,0-56Z" fill="none" stroke="#ff994d" stroke-miterlimit="10"/><path d="M447,376c5,5,7,11,7,16-1,4-4,6-7,7c0,0,0,0,0,0s0,0,0,0c-15,57-59,102-125,125c23-66,68-110,125-125c0,0,0,0,0,0-4-7-4-15,0-23Z" fill="none" stroke="#7ed1d7" stroke-miterlimit="10"/><path d="M447,391c2-1,6-2,9-1-2,5-5,8-9,9c0,0,0,0,0,0s0,0,0,0c-7,28-28,49-60,60c11-32,32-53,60-60c0,0,0,0,0,0-1-2-1-5,0-8Z" fill="none" stroke="#b3cefb" stroke-miterlimit="10"/><path d="M447,377c4,6,6,12,4,18-1,2-2,3-4,4c0,0,0,0,0,0s0,0,0,0c-10,37-38,66-81,81c15-43,44-71,81-81c0,0,0,0,0,0-4-6-4-14,0-22Z" fill="none" stroke="#f7b4ae" stroke-miterlimit="10"/><path d="M447,381c4,5,5,10,3,15c0,1-2,3-3,3c0,0,0,0,0,0c2,3,2,6,0,9-9,26-31,45-63,54c11-33,34-55,63-63c0,0,0,0,0,0-3-5-3-12,0-18Z" fill="none" stroke="#fde49b" stroke-miterlimit="10"/><path d="M447,380c4,3,7,8,7,12-1,4-4,6-7,7c0,0,0,0,0,0c2,3,2,6,0,9-14,43-50,77-102,93c17-53,53-89,97-102c2-1,4-1,5,0-3-5-3-12,0-19Z" fill="none" stroke="#aedcba" stroke-miterlimit="10"/><path d="M447,382c4,3,5,8,5,12-1,3-3,4-5,5c0,0,0,0,0,0s0,0,0,0c-9,34-35,61-75,75c14-40,41-66,75-75c0,0,0,0,0,0-3-5-3-11,0-17Z" fill="none" stroke="#ffc599" stroke-miterlimit="10"/><path d="M447,343c10,17,13,34,7,49-1,4-4,6-7,7c0,0,0,0,0,0s0,0,0,0c-14,54-56,96-118,118c22-62,64-104,118-118c0,0,0,0,0,0-9-16-10-36,0-56Z" fill="none" stroke="#b5e5e8" stroke-miterlimit="10"/><path d="M447,381c4,4,5,9,5,13-1,3-3,4-5,5c0,0,0,0,0,0c2,3,2,6,0,9-16,50-57,89-117,108c21-62,64-103,117-117c0,0,0,0,0,0-3-5-3-11,0-18Z" fill="none" stroke="#ecf3fe" stroke-miterlimit="10"/><path d="M447,398c0,0,0,0,0,1c0,0,0,0,0,0s0,0,0,0s0,0,0,0c-9,32-33,58-71,71c13-38,39-62,71-71c0,0,0,0,0,0s0-1,0-1Z" fill="none" stroke="#fdeceb" stroke-miterlimit="10"/><path d="M447,358c8,11,11,22,8,33-1,4-4,7-8,8c0,0,0,0,0,0s0,0,0,0c-21,80-83,144-176,176c32-93,96-155,176-176c0,0,0,0,0,0-7-12-7-27,0-41Z" fill="none" stroke="#fff8e6" stroke-miterlimit="10"/><path d="M447,358c8,12,9,25,5,36-1,2-3,4-5,5c0,0,0,0,0,0s0,0,0,0c-16,58-60,105-128,128c23-68,70-112,128-128c0,0,0,0,0,0-7-12-7-26,0-41Z" fill="none" stroke="#ebf6ee" stroke-miterlimit="10"/><path d="M447,352c12,1,24,6,33,14-3,16-12,27-23,33-4,2-7,2-10,0c2,3,2,6,0,9-19,62-69,111-143,134c22-73,68-123,129-143-12-7-20-19-22-36c11-7,23-11,36-11Z" fill="none" stroke="#fff0e6" stroke-miterlimit="10"/><path d="M447,379c4,5,6,10,5,15-1,3-3,4-5,5c0,0,0,0,0,0s0,0,0,0c-14,52-54,93-114,114c21-60,62-100,114-114c0,0,0,0,0,0-3-6-4-13,0-20Z" fill="none" stroke="#edf8f9" stroke-miterlimit="10"/><path d="M447,392c2-2,6-3,10-3-2,5-6,9-10,10c0,0,0,0,0,0s0,0,0,0c-7,28-29,50-61,61c11-32,33-54,61-61c0,0,0,0,0,0-1-2-1-5,0-7Z" fill="none" stroke="#251701" stroke-miterlimit="10"/><path d="M447,398c0,0,1-1,2-1c0,1-1,2-2,2c0,0,0,0,0,0s0,0,0,0c-7,25-26,44-54,54c10-28,29-47,54-54c0,0,0,0,0,0s0,0,0-1Z" fill="none" stroke="#032527" stroke-miterlimit="10"/><path d="M447,390c2,3,2,5,1,8c0,0,0,1-1,1c0,0,0,0,0,0s0,0,0,0c-3,12-12,21-26,26c5-14,14-23,26-26c0,0,0,0,0,0-1-3-2-6,0-9Z" fill="none" stroke="#010d31" stroke-miterlimit="10"/><path d="M447,305c26-3,54,1,80,14c2,32-6,60-22,80-21,10-41,10-58,0c5,8,5,18,0,27-19,45-60,78-118,91c18-60,58-102,108-118c1-2,3-4,5-5-13-27-12-58,5-89Z" fill="none" stroke="#291121" stroke-miterlimit="10"/><path d="M447,355c9,9,14,19,15,29c3,5,4,10,4,15-7,3-13,3-19,0c2,3,2,6,0,9-15,46-52,81-107,98c17-55,51-92,96-107c4-2,8-2,11,0-7-13-8-28,0-44Z" fill="none" stroke="#ff1d32" stroke-miterlimit="10"/><path d="M447,314c20,9,36,23,45,40-5,22-18,38-35,45c6,4,10,12,12,22-7,4-15,6-22,5-20,46-62,80-121,94c21-63,63-106,117-121-4-2-7-7-9-13-7-22-3-48,13-72Z" fill="none" stroke="#250d0a" stroke-miterlimit="10"/><path d="M447,378c5,4,7,9,8,13-2,4-5,7-8,8c0,0,0,0,0,0s0,0,0,0c-16,59-61,106-130,130c24-69,71-114,130-130c0,0,0,0,0,0-4-6-4-14,0-21Z" fill="none" stroke="#5f3d05" stroke-miterlimit="10"/><path d="M447,390c2,2,3,4,3,6-1,2-2,3-3,3c0,0,0,0,0,0s0,0,0,0c-9,35-37,64-78,78c14-41,43-69,78-78c0,0,0,0,0,0-1-3-2-6,0-9Z" fill="none" stroke="#0b5d64" stroke-miterlimit="10"/><path d="M447,398c0,0,0,0,1,0-1,1-1,1-1,1s0,0,0,0s0,0,0,0c-10,37-39,67-82,82c15-43,45-72,82-82c0,0,0,0,0,0s0-1,0-1Z" fill="none" stroke="#01217d" stroke-miterlimit="10"/><path d="M447,391c2,2,2,5,1,7c0,1-1,1-1,1s0,0,0,0s0,0,0,0c-10,36-37,65-79,79c14-42,43-69,79-79c0,0,0,0,0,0-1-2-1-5,0-8Z" fill="none" stroke="#652b55" stroke-miterlimit="10"/><path d="M447,392c1,2,2,4,2,5-1,1-1,2-2,2c0,0,0,0,0,0s0,0,0,0c-9,32-33,57-70,70c13-37,38-61,70-70c0,0,0,0,0,0-1-2-1-4,0-7Z" fill="none" stroke="#ff497e" stroke-miterlimit="10"/><path d="M447,371c6,7,8,15,6,22-1,3-3,5-6,6c0,0,0,0,0,0s0,0,0,0c-10,38-39,67-83,83c16-44,45-73,83-83c0,0,0,0,0,0-5-8-5-18,0-28Z" fill="none" stroke="#5d211c" stroke-miterlimit="10"/><path d="M447,382c4,0,9,2,12,5-2,6-7,11-12,12c0,0,0,0,0,0c3,5,3,12,0,18-14,33-44,58-86,68c14-45,43-75,81-86c2-1,3-1,5,0-3-5-3-11,0-17Z" fill="none" stroke="#976108" stroke-miterlimit="10"/><path d="M447,119c59,60,88,127,88,192c19,26,30,56,33,88-4,31-16,61-35,86-18,32-47,60-86,79-57,49-139,76-236,71c38-122,117-204,218-236-16-9-27-26-31-49-21-72-5-154,49-231Z" fill="none" stroke="#1195a1" stroke-miterlimit="10"/><path d="M447,380c4,5,5,11,3,16c0,1-1,3-3,3c0,0,0,0,0,0s0,0,0,0c-13,48-49,85-105,105c20-56,57-92,105-105c0,0,0,0,0,0-3-6-3-13,0-19Z" fill="none" stroke="#0335c8" stroke-miterlimit="10"/><path d="M447,352c9,14,11,28,7,40c25-12,55-10,85,7-33,16-66,15-92,0c0,0,0,0,0,0-24,88-91,157-193,193c33-101,100-168,185-193c3-1,6-1,8,0-8-13-8-30,0-47Z" fill="none" stroke="#a14589" stroke-miterlimit="10"/><path d="M447,315c19,14,30,32,34,50-3,16-12,28-24,34c6,4,10,12,12,22-10-2-18-6-22-13-19,62-69,111-143,134c21-72,66-122,125-143c6-3,12-4,17-1-14-24-14-54,1-83Z" fill="none" stroke="#ff75ca" stroke-miterlimit="10"/><path d="M447,384c4,2,6,4,8,7-1,4-4,7-8,8c0,0,0,0,0,0s0,0,0,0c-14,52-54,93-114,114c21-60,62-100,114-114c0,0,0,0,0,0-2-4-3-10,0-15Z" fill="none" stroke="#93352d" stroke-miterlimit="10"/><path d="M447,396c1,1,1,1,1,2s-1,1-1,1s0,0,0,0s0,0,0,0c-7,27-28,49-59,59c10-31,32-52,59-59c0,0,0,0,0,0-1-1-1-2,0-3Z" fill="none" stroke="#cf850b" stroke-miterlimit="10"/><path d="M447,381c4,5,5,10,4,14-1,2-2,4-4,4c0,0,0,0,0,0s0,0,0,0c-9,33-34,59-73,73c14-39,40-64,73-73c0,0,0,0,0,0-3-5-3-12,0-18Z" fill="none" stroke="#17cfdd" stroke-miterlimit="10"/><path d="M447,371c6,7,8,15,7,21-2,4-4,6-7,7c0,0,0,0,0,0s0,0,0,0c-16,61-64,110-135,135c25-71,74-119,135-135c0,0,0,0,0,0-5-8-5-18,0-28Z" fill="none" stroke="#034b13" stroke-miterlimit="10"/><path d="M447,113c64,46,105,104,122,164c57,19,110,60,153,122-39,63-90,107-145,130-38,29-83,47-130,53-61,45-145,67-242,59c35-122,110-207,208-242c8-7,17-10,25-9-43-81-41-179,9-277Z" fill="none" stroke="#df5fbc" stroke-miterlimit="10"/><path d="M447,398c0,0,0,1,0,1s0,0,0,0s0,0,0,0s0,0,0,0c-12,43-45,77-95,95c18-50,52-83,95-95c0,0,0,0,0,0s0-1,0-1Z" fill="none" stroke="#ffa216" stroke-miterlimit="10"/><path d="M447,391c2,2,2,4,1,7c0,0,0,1-1,1c0,0,0,0,0,0s0,0,0,0c-11,42-44,75-92,92c17-48,50-81,92-92c0,0,0,0,0,0-1-2-1-5,0-8Z" fill="none" stroke="#cb493e" stroke-miterlimit="10"/><path d="M447,348c10,12,14,26,13,38c3,4,5,8,6,13-7,3-13,3-19,0c3,5,3,12,0,18-23,67-79,119-162,144c30-86,88-142,162-162c0,0,0,0,0,0-9-15-9-33,0-51Z" fill="none" stroke="#09ab0e" stroke-miterlimit="10"/><path d="M447,390c2,2,3,4,3,6-1,2-2,3-3,3c0,0,0,0,0,0s0,0,0,0c-12,46-48,83-101,101c18-53,55-89,101-101c0,0,0,0,0,0-2-3-2-6,0-9Z" fill="none" stroke="#1e061a" stroke-miterlimit="10"/><path d="M447,251c34,20,58,47,71,77c49,2,98,26,141,71-56,42-115,56-169,43-18,0-33-6-43-16-22,56-72,98-143,116c12-67,46-117,93-143c18-9,36-8,50,0-25-43-26-96,0-148Z" fill="none" stroke="#055f5e" stroke-miterlimit="10"/><path d="M447,385c3,4,3,8,2,12c0,1-1,2-2,2c0,0,0,0,0,0s0,0,0,0c-5,18-18,32-39,39c7-21,21-34,39-39c0,0,0,0,0,0-2-4-2-9,0-14Z" fill="none" stroke="#1b79f0" stroke-miterlimit="10"/><path d="M447,387c3,2,5,4,6,6-1,3-3,5-6,6c0,0,0,0,0,0s0,0,0,0c-12,46-48,83-101,101c18-53,55-89,101-101c0,0,0,0,0,0-2-3-2-8,0-12Z" fill="none" stroke="#ffcb63" stroke-miterlimit="10"/><path d="M447,316c17,20,24,41,23,60-5,12-13,20-23,23c0,0,0,0,0,0s0,0,0,0c-14,51-53,92-112,112c20-59,61-98,112-112c0,0,0,0,0,0-14-24-14-53,0-83Z" fill="none" stroke="#035b4f" stroke-miterlimit="10"/><path d="M447,370c6,7,8,15,7,22-1,4-4,6-7,7c0,0,0,0,0,0s0,0,0,0c-11,40-41,71-87,87c16-46,47-76,87-87c0,0,0,0,0,0-5-9-5-19,0-29Z" fill="none" stroke="#41cf12" stroke-miterlimit="10"/><path d="M447,334c14,11,23,25,26,39-5,14-14,23-26,26c0,0,0,0,0,0s0,0,0,0c-20,76-78,136-166,166c29-87,87-145,160-166c2-1,4-1,6,0-11-19-11-42,0-65Z" fill="none" stroke="#233f56" stroke-miterlimit="10"/><path d="M447,380c4,5,5,10,4,15-1,2-2,4-4,4c0,0,0,0,0,0s0,0,0,0c-11,42-44,76-93,93c17-49,51-82,93-93c0,0,0,0,0,0-3-6-3-13,0-19Z" fill="none" stroke="#0773aa" stroke-miterlimit="10"/><path d="M447,378c4,5,6,11,5,16-1,3-3,4-5,5c0,0,0,0,0,0s0,0,0,0c-13,47-49,84-103,103c19-54,56-90,103-103c0,0,0,0,0,0-3-6-4-14,0-21Z" fill="none" stroke="#599323" stroke-miterlimit="10"/><path d="M447,376c4,7,5,14,2,21c0,1-1,2-2,2c0,0,0,0,0,0c2,3,2,6,0,9-11,33-38,58-78,69c14-41,42-68,78-78c0,0,0,0,0,0-4-7-4-15,0-23Z" fill="none" stroke="#fff7af" stroke-miterlimit="10"/><path d="M447,377c4,6,5,13,4,18-1,2-2,4-4,4c0,0,0,0,0,0c2,3,2,6,0,9-11,33-39,59-80,71c13-41,40-69,75-80c2-1,4-1,5,0-4-6-4-14,0-22Z" fill="none" stroke="#3b6f60" stroke-miterlimit="10"/><path d="M447,319c16,19,24,39,22,58-1,10-6,18-12,22-4,2-7,2-10,0c8,13,8,30,0,46-31,71-98,124-191,145c33-100,99-166,184-191c3-1,5-1,7,0-13-23-14-51,0-80Z" fill="none" stroke="#79f315" stroke-miterlimit="10"/><path d="M447,394c1,1,2,1,3,2-1,2-2,3-3,3c0,0,0,0,0,0s0,0,0,0c-5,20-20,35-43,43c8-23,23-38,43-43c0,0,0,0,0,0-1-1-1-3,0-5Z" fill="none" stroke="#2b7793" stroke-miterlimit="10"/><path d="M447,301c19,27,25,55,18,80-1,8-4,14-8,18-4,2-7,2-10,0c2,3,2,6,0,9-19,61-68,108-140,131c16-68,56-117,108-140c12-5,23-5,32,0-16-28-17-63,0-98Z" fill="none" stroke="#0787f5" stroke-miterlimit="10"/><path d="M447,383c3,3,5,7,6,10-1,3-3,5-6,6c0,0,0,0,0,0s0,0,0,0c-11,40-41,71-87,87c16-46,47-76,87-87c0,0,0,0,0,0-3-5-3-10,0-16Z" fill="none" stroke="#95af57" stroke-miterlimit="10"/><path d="M447,370c6,7,8,15,7,22-1,4-4,6-7,7c0,0,0,0,0,0s0,0,0,0c-17,64-66,114-140,140c26-74,76-123,140-140c0,0,0,0,0,0-5-8-5-19,0-29Z" fill="none" stroke="#ff23fb" stroke-miterlimit="10"/><path d="M447,351c10,11,14,24,12,36-2,6-6,10-12,12c0,0,0,0,0,0c2,3,2,6,0,9-13,39-45,69-92,83c14-47,43-79,81-92c4-2,8-2,11,0-8-14-8-31,0-48Z" fill="none" stroke="#718371" stroke-miterlimit="10"/><path d="M447,397c0,0,1,1,1,1c0,1-1,1-1,1s0,0,0,0s0,0,0,0c-5,18-19,33-40,40c7-21,22-35,40-40c0,0,0,0,0,0c0-1,0-1,0-2Z" fill="none" stroke="#b21918" stroke-miterlimit="10"/><path d="M447,292c21,28,28,59,21,86-1,9-5,17-11,21c6,4,10,12,12,22-10-2-18-6-22-13-22,73-80,130-167,158c24-85,76-143,144-167c8-4,16-4,23,0-18-31-18-69,0-107Z" fill="none" stroke="#2fafd0" stroke-miterlimit="10"/><path d="M447,344c11,13,16,28,14,41c0,6-1,11-4,14-4,2-7,2-10,0c0,0,0,0,0,0-16,59-61,105-129,129c16-64,52-108,100-129c11-5,21-5,29,0-9-16-10-35,0-55Z" fill="none" stroke="#099b40" stroke-miterlimit="10"/><path d="M447,398c0,0,0,0,0,1c0,0,0,0,0,0s0,0,0,0s0,0,0,0c-8,31-32,56-69,69c12-36,36-60,66-69c1,0,2,0,3,0c0,0,0,0,0-1Z" fill="none" stroke="#d3c78b" stroke-miterlimit="10"/><path d="M447,359c8,10,11,22,8,32-1,4-4,7-8,8c0,0,0,0,0,0s0,0,0,0c-24,88-91,158-193,193c26-96,84-164,160-193c12-6,24-5,33,0-7-12-7-26,0-40Z" fill="none" stroke="#ff4f47" stroke-miterlimit="10"/><path d="M447,384c3,3,5,6,6,9-1,3-3,5-6,6c0,0,0,0,0,0s0,0,0,0c-7,26-27,47-58,58c11-31,32-51,58-58c0,0,0,0,0,0-2-4-3-9,0-15Z" fill="none" stroke="#a99782" stroke-miterlimit="10"/><path d="M447,347c11,12,15,26,13,39-2,7-7,11-13,13c0,0,0,0,0,0s0,0,0,0c-17,62-64,111-135,135c24-71,73-118,135-135c0,0,0,0,0,0-9-15-9-33,0-52Z" fill="none" stroke="#ea3d1c" stroke-miterlimit="10"/><path d="M447,348c11,10,18,20,20,31-1,9-5,16-10,20-4,2-7,2-10,0c2,3,2,6,0,9-19,60-67,107-139,130c22-71,68-120,126-139c0-3,1-7,3-10-3-13,0-27,10-41Z" fill="none" stroke="#36eb0c" stroke-miterlimit="10"/><path d="M447,293c25,14,42,33,52,54c4,20,3,37-4,52-17,8-34,8-48,0c2,3,2,6,0,9-25,84-92,151-192,183c34-101,101-168,187-192c1-1,3-1,4-1-17-30-17-67,1-105Z" fill="none" stroke="#09af8c" stroke-miterlimit="10"/><path d="M447,229c36,35,55,75,56,114c30,6,60,25,84,56-30,29-64,44-97,43-21-5-36-17-43-34-24,81-89,145-185,176c27-94,85-158,161-185c4-5,9-8,15-9-24-48-21-105,9-161Z" fill="none" stroke="#0fe3be" stroke-miterlimit="10"/><path d="M447,374c5,6,7,13,6,19-1,3-3,5-6,6c0,0,0,0,0,0s0,0,0,0c-16,60-62,107-131,131c24-69,71-115,131-131c0,0-1,0-1-1-4-7-3-15,1-24Z" fill="none" stroke="#ff7b93" stroke-miterlimit="10"/><path d="M447,389c2,2,3,4,4,6-1,2-2,4-4,4c0,0,0,0,0,0s0,0,0,0c0,1-1,1-2,2c1-1,1-2,2-2c0,0,0,0,0,0-2-3-2-7,0-10Z" fill="none" stroke="#e1ab93" stroke-miterlimit="10"/><path d="M447,399c0,0,0,0,0,0s0,0,0,0s0,0,0,0s0,0,0,0c-7,27-27,48-58,58c10-31,31-51,58-58c0,0,0,0,0,0s0,0,0,0Z" fill="none" stroke="#23611f" stroke-miterlimit="10"/><path d="M447,396c1,1,1,1,1,2c0,0,0,1-1,1c0,0,0,0,0,0c2,3,2,6,0,9-9,24-29,41-58,49c10-30,31-51,58-58c0,0,0,0,0,0c0-1-1-2,0-3Z" fill="none" stroke="#3f2349" stroke-miterlimit="10"/><path d="M447,359c11,0,21,3,31,9-3,15-11,26-21,31-4,2-7,2-10,0c0,0,0,0,0,0-16,58-60,105-128,128c22-67,66-111,123-128c0-1,1-3,1-4-4-11-3-24,4-36Z" fill="none" stroke="#0bc3d7" stroke-miterlimit="10"/><path d="M447,363c7,10,9,20,7,29-2,4-4,6-7,7c0,0,0,0,0,0s0,0,0,0c-14,52-53,92-113,113c21-60,61-99,113-113c0,0,0,0,0,0-6-11-6-23,0-36Z" fill="none" stroke="#4dfbf2" stroke-miterlimit="10"/><path d="M447,325c17,10,29,24,35,39-3,17-13,29-25,35-4,2-7,2-10,0c0,0,0,0,0,0-22,82-85,147-181,181c30-94,90-157,168-181c3-3,7-4,10-3-11-21-10-46,3-71Z" fill="none" stroke="#ffa7e0" stroke-miterlimit="10"/><path d="M447,366c8,3,15,8,20,13-1,9-5,16-10,20-4,2-7,2-10,0c0,0,0,0,0,0-14,54-55,96-118,118c18-60,56-101,104-118c5-2,10-2,14,0-5-9-6-21,0-33Z" fill="none" stroke="#19bfa4" stroke-miterlimit="10"/></g><g><path d="M439.8125,10.5625h-3.70312v3.015625h4.29687v.921875h-5.42187v-8.53125h5.375v.921875h-4.25v2.75h3.70312v.921875Zm3.125-2.40625v7.078125q0,1.828125-1.65625,1.828125-.35937,0-.65625-.109375v-.859375q.1875.046875.48438.046875.35937,0,.54687-.203125.20313-.1875.20313-.6875v-7.09375h1.07812ZM441.75,6.484375q0-.265625.15625-.453125t.46875-.1875.46875.1875q.17187.1875.17187.453125q0,.25-.17187.4375-.15625.171875-.46875.171875t-.46875-.171875q-.15625-.1875-.15625-.4375ZM447.45312,14.625q-1.29687,0-2.10937-.84375-.79687-.859375-.79687-2.28125v-.1875q0-.953125.35937-1.6875.35937-.75,1-1.15625.65625-.421875,1.40625-.421875q1.23438,0,1.92188.8125t.6875,2.328125v.453125h-4.29688q.03125.9375.54688,1.515625.53124.578125,1.34374.578125.5625,0,.95313-.234375.40625-.234375.71875-.625l.65625.515625Q449.04688,14.625,447.45312,14.625Zm-.14062-5.6875q-.65625,0-1.10938.484375-.4375.46875-.53124,1.328125h3.17187v-.078125q-.04687-.828125-.45313-1.28125Q448,8.9375,447.3125,8.9375ZM457.26562,14.5h-1.07812v-7.21875L454,8.078125v-.984375l3.10938-1.171875h.15624v8.578125Z" fill="#fff" fill-rule="evenodd" stroke-linecap="square" stroke-miterlimit="10"/><path d="M714.8125,124.5625h-3.7031v3.015625h4.29685v.921875h-5.42185v-8.53125h5.375v.921875h-4.25v2.75h3.7031v.921875Zm3.125-2.40625v7.07813q0,1.82812-1.65625,1.82812-.35935,0-.65625-.10938v-.85937q.1875.04687.4844.04687.35935,0,.54685-.20312.20315-.1875.20315-.6875v-7.09375h1.0781Zm-1.1875-1.671875q0-.265625.15625-.453125t.46875-.1875.46875.1875q.17185.1875.17185.453125q0,.25-.17185.4375-.15625.171875-.46875.171875t-.46875-.171875q-.15625-.1875-.15625-.4375Zm5.7031,8.140625q-1.29685,0-2.10935-.84375-.79685-.859375-.79685-2.28125v-.1875q0-.953125.35935-1.6875.35935-.75,1-1.15625.65625-.421875,1.40625-.421875q1.2344,0,1.9219.8125t.6875,2.328125v.453125h-4.2969q.03125.9375.5469,1.515625.5312.578125,1.3437.578125.5625,0,.95315-.234375.40625-.234375.71875-.625l.65625.515625Q724.0469,128.625,722.4531,128.625Zm-.1406-5.6875q-.65625,0-1.1094.484375-.4375.46875-.5312,1.328125h3.17185v-.078125q-.04685-.828125-.45315-1.28125-.3906-.453125-1.0781-.453125ZM734.2969,128.5h-5.5938v-.78125l2.95315-3.28125q.65625-.75.90625-1.203125.25-.46875.25-.96875q0-.671875-.40625-1.09375-.39065-.4375-1.07815-.4375-.79685,0-1.25.46875-.4531.453125-.4531,1.28125h-1.0781q0-1.1875.75-1.90625.7656-.734375,2.0312-.734375q1.20315,0,1.89065.625t.6875,1.671875q0,1.25-1.60935,3l-2.2813,2.46875h4.2813v.890625Z" fill="#fff" fill-rule="evenodd" stroke-linecap="square" stroke-miterlimit="10"/><path d="M828.8125,399.5625h-3.7031v3.01562h4.29685v.92188h-5.42185v-8.53125h5.375v.92187h-4.25v2.75h3.7031v.92188Zm3.125-2.40625v7.07813q0,1.82812-1.65625,1.82812-.35935,0-.65625-.10938v-.85937q.1875.04687.4844.04687.35935,0,.54685-.20312.20315-.1875.20315-.6875v-7.09375h1.0781Zm-1.1875-1.67187q0-.26563.15625-.45313t.46875-.1875.46875.1875q.17185.1875.17185.45313q0,.25-.17185.4375-.15625.17187-.46875.17187t-.46875-.17187q-.15625-.1875-.15625-.4375Zm5.7031,8.14062q-1.29685,0-2.10935-.84375-.79685-.85937-.79685-2.28125v-.1875q0-.95312.35935-1.6875.35935-.75,1-1.15625.65625-.42187,1.40625-.42187q1.2344,0,1.9219.8125t.6875,2.32812v.45312h-4.2969q.03125.9375.5469,1.51563.5312.57813,1.3437.57813.5625,0,.95315-.23438.40625-.23438.71875-.625l.65625.51562q-.79685,1.23438-2.39065,1.23438Zm-.1406-5.6875q-.65625,0-1.1094.48438-.4375.46874-.5312,1.32812h3.17185v-.07812q-.04685-.82813-.45315-1.28126-.3906-.45312-1.0781-.45312Zm7.96875.76562h.8125q.78125-.01562,1.21875-.40624t.4375-1.0625q0-1.5-1.5-1.5-.7031,0-1.125.40624-.40625.40626-.40625,1.0625h-1.09375q0-1.01562.7344-1.6875.75-.67187,1.8906-.67187q1.2031,0,1.8906.64063t.6875,1.78124q0,.5625-.35935,1.07813t-.98435.78125q.7031.21875,1.0781.73438.3906.51562.3906,1.26562q0,1.14062-.75,1.82812-.75.67188-1.9531.67188-1.1875,0-1.9531-.65625-.75-.65625-.75-1.71875h1.0937q0,.67188.4375,1.07812t1.1875.40626q.7813,0,1.1875-.40626.4219-.42187.4219-1.1875q0-.73437-.4531-1.125-.45315-.40624-1.32815-.42187h-.8125v-.89063Z" fill="#fff" fill-rule="evenodd" stroke-linecap="square" stroke-miterlimit="10"/><path d="M714.8125,674.5625h-3.7031v3.0156h4.29685v.9219h-5.42185v-8.53125h5.375v.92185h-4.25v2.75h3.7031v.9219Zm3.125-2.40625v7.07815q0,1.8281-1.65625,1.8281-.35935,0-.65625-.1094v-.85935q.1875.04685.4844.04685.35935,0,.54685-.2031.20315-.1875.20315-.6875v-7.09375h1.0781ZM716.75,670.4844q0-.26565.15625-.45315t.46875-.1875.46875.1875q.17185.1875.17185.45315q0,.25-.17185.4375-.15625.17185-.46875.17185t-.46875-.17185q-.15625-.1875-.15625-.4375Zm5.7031,8.1406q-1.29685,0-2.10935-.84375-.79685-.85935-.79685-2.28125v-.1875q0-.9531.35935-1.6875.35935-.75,1-1.15625.65625-.42185,1.40625-.42185q1.2344,0,1.9219.8125t.6875,2.3281v.4531h-4.2969q.03125.9375.5469,1.51565.5312.57815,1.3437.57815.5625,0,.95315-.2344.40625-.2344.71875-.625l.65625.5156q-.79685,1.2344-2.39065,1.2344Zm-.1406-5.6875q-.65625,0-1.1094.4844-.4375.4687-.5312,1.3281h3.17185v-.0781q-.04685-.82815-.45315-1.2813-.3906-.4531-1.0781-.4531Zm10.96875,2.7031h1.1875v.875h-1.1875v1.9844h-1.07815v-1.9844h-3.8906v-.6406l3.8125-5.90625h1.15625v5.67185Zm-3.73435,0h2.6562v-4.1875l-.1406.2344-2.5156,3.9531Z" transform="translate(.000001 0)" fill="#fff" fill-rule="evenodd" stroke-linecap="square" stroke-miterlimit="10"/><path d="M439.8125,788.5625h-3.70312v3.0156h4.29687v.9219h-5.42187v-8.53125h5.375v.92185h-4.25v2.75h3.70312v.9219Zm3.125-2.40625v7.07815q0,1.8281-1.65625,1.8281-.35937,0-.65625-.1094v-.85935q.1875.04685.48438.04685.35937,0,.54687-.2031.20313-.1875.20313-.6875v-7.09375h1.07812ZM441.75,784.4844q0-.26565.15625-.45315t.46875-.1875.46875.1875q.17187.1875.17187.45315q0,.25-.17187.4375-.15625.17185-.46875.17185t-.46875-.17185q-.15625-.1875-.15625-.4375Zm5.70312,8.1406q-1.29687,0-2.10937-.84375-.79687-.85935-.79687-2.28125v-.1875q0-.9531.35937-1.6875.35937-.75,1-1.15625.65625-.42185,1.40625-.42185q1.23438,0,1.92188.8125t.6875,2.3281v.4531h-4.29688q.03125.9375.54688,1.51565.53124.57815,1.34374.57815.5625,0,.95313-.2344.40625-.2344.71875-.625l.65625.5156q-.79687,1.2344-2.39063,1.2344Zm-.14062-5.6875q-.65625,0-1.10938.4844-.4375.4687-.53124,1.3281h3.17187v-.0781q-.04687-.82815-.45313-1.2813-.39062-.4531-1.07812-.4531Zm6.89062,1.28125l.4375-4.25h4.375v1h-3.45312l-.26562,2.32815q.64062-.375,1.4375-.375q1.15624,0,1.84374.7812.6875.76565.6875,2.07815t-.71874,2.07815q-.70313.7656-1.98438.7656-1.125,0-1.84375-.625-.71875-.6406-.8125-1.75h1.01563q.10937.7344.53124,1.1094t1.10938.375q.75,0,1.1875-.51565t.4375-1.42185q0-.8594-.46875-1.375t-1.25-.51565q-.70313,0-1.10937.29685l-.28126.2344-.875-.21875Z" fill="#fff" fill-rule="evenodd" stroke-linecap="square" stroke-miterlimit="10"/><path d="M164.8125,674.5625h-3.70312v3.0156h4.29687v.9219h-5.42187v-8.53125h5.375v.92185h-4.25v2.75h3.70312v.9219Zm3.125-2.40625v7.07815q0,1.8281-1.65625,1.8281-.35937,0-.65625-.1094v-.85935q.1875.04685.48438.04685.35937,0,.54687-.2031.20313-.1875.20313-.6875v-7.09375h1.07812ZM166.75,670.4844q0-.26565.15625-.45315t.46875-.1875.46875.1875q.17187.1875.17187.45315q0,.25-.17187.4375-.15625.17185-.46875.17185t-.46875-.17185q-.15625-.1875-.15625-.4375Zm5.70312,8.1406q-1.29687,0-2.10937-.84375-.79687-.85935-.79687-2.28125v-.1875q0-.9531.35937-1.6875.35937-.75,1-1.15625.65625-.42185,1.40625-.42185q1.23438,0,1.92188.8125t.6875,2.3281v.4531h-4.29688q.03125.9375.54688,1.51565.53124.57815,1.34374.57815.5625,0,.95313-.2344.40625-.2344.71875-.625l.65625.5156q-.79687,1.2344-2.39063,1.2344Zm-.14062-5.6875q-.65625,0-1.10938.4844-.4375.4687-.53124,1.3281h3.17187v-.0781q-.04687-.82815-.45313-1.2813-.39062-.4531-1.07812-.4531Zm10.65625-2.96875v.90625h-.20313q-1.26562.03125-2.01562.7656-.75.7188-.875,2.0313.6875-.76565,1.84375-.76565q1.10937,0,1.78125.78125t.67188,2.03125q0,1.3125-.71876,2.10935t-1.9375.7969-1.98437-.9375q-.75-.9531-.75-2.4375v-.40625q0-2.35935,1-3.60935t2.98437-1.26565h.20313Zm-1.42187,3.84375q-.5625,0-1.03126.3281t-.65624.8438v.3906q0,1.0625.46874,1.7031.48438.64065,1.1875.64065.73438,0,1.15626-.53125.42187-.5469.42187-1.4219t-.42187-1.4062q-.42188-.5469-1.125-.5469Z" fill="#fff" fill-rule="evenodd" stroke-linecap="square" stroke-miterlimit="10"/><path d="M50.8125,399.5625h-3.703125v3.01562h4.296875v.92188h-5.421875v-8.53125h5.375v.92187h-4.25v2.75h3.703125v.92188Zm3.125-2.40625v7.07813q0,1.82812-1.65625,1.82812-.359375,0-.65625-.10938v-.85937q.1875.04687.484375.04687.359375,0,.546875-.20312.203125-.1875.203125-.6875v-7.09375h1.078125ZM52.75,395.48438q0-.26563.15625-.45313t.46875-.1875.46875.1875q.171875.1875.171875.45313q0,.25-.171875.4375-.15625.17187-.46875.17187t-.46875-.17187q-.15625-.1875-.15625-.4375Zm5.703125,8.14062q-1.296875,0-2.109375-.84375-.796875-.85937-.796875-2.28125v-.1875q0-.95312.359375-1.6875.359375-.75,1-1.15625.65625-.42187,1.40625-.42187q1.234375,0,1.921875.8125t.6875,2.32812v.45312h-4.296875q.03125.9375.546875,1.51563.53125.57813,1.34375.57813.5625,0,.953125-.23438.40625-.23438.71875-.625l.65625.51562q-.796875,1.23438-2.390625,1.23438Zm-.140625-5.6875q-.65625,0-1.109375.48438-.4375.46874-.53125,1.32812h3.171875v-.07812q-.046875-.82813-.453125-1.28126Q59,397.9375,58.3125,397.9375Zm11.90625-2.35938L66.6875,403.5h-1.140625l3.515625-7.64062h-4.609375v-.89063h5.765625v.60937Z" transform="translate(.000001 0)" fill="#fff" fill-rule="evenodd" stroke-linecap="square" stroke-miterlimit="10"/><path d="M164.8125,124.5625h-3.70312v3.015625h4.29687v.921875h-5.42187v-8.53125h5.375v.921875h-4.25v2.75h3.70312v.921875Zm3.125-2.40625v7.07813q0,1.82812-1.65625,1.82812-.35937,0-.65625-.10938v-.85937q.1875.04687.48438.04687.35937,0,.54687-.20312.20313-.1875.20313-.6875v-7.09375h1.07812Zm-1.1875-1.671875q0-.265625.15625-.453125t.46875-.1875.46875.1875q.17187.1875.17187.453125q0,.25-.17187.4375-.15625.171875-.46875.171875t-.46875-.171875q-.15625-.1875-.15625-.4375Zm5.70312,8.140625q-1.29687,0-2.10937-.84375-.79687-.859375-.79687-2.28125v-.1875q0-.953125.35937-1.6875.35937-.75,1-1.15625.65625-.421875,1.40625-.421875q1.23438,0,1.92188.8125t.6875,2.328125v.453125h-4.29688q.03125.9375.54688,1.515625.53124.578125,1.34374.578125.5625,0,.95313-.234375.40625-.234375.71875-.625l.65625.515625q-.79687,1.234375-2.39063,1.234375Zm-.14062-5.6875q-.65625,0-1.10938.484375-.4375.46875-.53124,1.328125h3.17187v-.078125q-.04687-.828125-.45313-1.28125Q173,122.9375,172.3125,122.9375Zm11.57812-.75q0,.640625-.34374,1.140625t-.90626.78125q.65626.28125,1.04688.84375.39062.546875.39062,1.25q0,1.09375-.75,1.765625-.73437.65625-1.95312.65625-1.23438,0-1.98438-.65625-.73437-.671875-.73437-1.765625q0-.703125.375-1.25.375-.5625,1.04687-.84375-.5625-.28125-.89062-.78125t-.32812-1.140625q0-1.078125.6875-1.703125.6875-.640625,1.82812-.640625q1.125,0,1.8125.640625.70312.625.70312,1.703125ZM183,126.171875q0-.71875-.45312-1.15625-.45313-.453125-1.1875-.453125t-1.1875.453125q-.4375.4375-.4375,1.171875q0,.71875.4375,1.140625.4375.40625,1.20312.40625.75,0,1.1875-.421875t.4375-1.140625Zm-1.625-5.4375q-.64062,0-1.04688.40625-.39062.390625-.39062,1.078125q0,.640625.39062,1.046875t1.03126.40625q.65624,0,1.04687-.40625t.39063-1.046875q0-.65625-.40626-1.0625-.40624-.421875-1.01562-.421875Z" fill="#fff" fill-rule="evenodd" stroke-linecap="square" stroke-miterlimit="10"/></g><script><![CDATA[!function(t,n){"object"==typeof exports&&"undefined"!=typeof module?module.exports=n():"function"==typeof define&&define.amd?define(n):((t="undefined"!=typeof globalThis?globalThis:t||self).__SVGATOR_PLAYER__=t.__SVGATOR_PLAYER__||{},t.__SVGATOR_PLAYER__["5c7f360c"]=n())}(this,(function(){"use strict";function t(t,n){var e=Object.keys(t);if(Object.getOwnPropertySymbols){var r=Object.getOwnPropertySymbols(t);n&&(r=r.filter((function(n){return Object.getOwnPropertyDescriptor(t,n).enumerable}))),e.push.apply(e,r)}return e}function n(n){for(var e=1;e<arguments.length;e++){var r=null!=arguments[e]?arguments[e]:{};e%2?t(Object(r),!0).forEach((function(t){o(n,t,r[t])})):Object.getOwnPropertyDescriptors?Object.defineProperties(n,Object.getOwnPropertyDescriptors(r)):t(Object(r)).forEach((function(t){Object.defineProperty(n,t,Object.getOwnPropertyDescriptor(r,t))}))}return n}function e(t){return(e="function"==typeof Symbol&&"symbol"==typeof Symbol.iterator?function(t){return typeof t}:function(t){return t&&"function"==typeof Symbol&&t.constructor===Symbol&&t!==Symbol.prototype?"symbol":typeof t})(t)}function r(t,n){if(!(t instanceof n))throw new TypeError("Cannot call a class as a function")}function i(t,n){for(var e=0;e<n.length;e++){var r=n[e];r.enumerable=r.enumerable||!1,r.configurable=!0,"value"in r&&(r.writable=!0),Object.defineProperty(t,r.key,r)}}function u(t,n,e){return n&&i(t.prototype,n),e&&i(t,e),t}function o(t,n,e){return n in t?Object.defineProperty(t,n,{value:e,enumerable:!0,configurable:!0,writable:!0}):t[n]=e,t}function a(t){return(a=Object.setPrototypeOf?Object.getPrototypeOf:function(t){return t.__proto__||Object.getPrototypeOf(t)})(t)}function l(t,n){return(l=Object.setPrototypeOf||function(t,n){return t.__proto__=n,t})(t,n)}function s(){if("undefined"==typeof Reflect||!Reflect.construct)return!1;if(Reflect.construct.sham)return!1;if("function"==typeof Proxy)return!0;try{return Boolean.prototype.valueOf.call(Reflect.construct(Boolean,[],(function(){}))),!0}catch(t){return!1}}function f(t,n,e){return(f=s()?Reflect.construct:function(t,n,e){var r=[null];r.push.apply(r,n);var i=new(Function.bind.apply(t,r));return e&&l(i,e.prototype),i}).apply(null,arguments)}function c(t,n){if(n&&("object"==typeof n||"function"==typeof n))return n;if(void 0!==n)throw new TypeError("Derived constructors may only return object or undefined");return function(t){if(void 0===t)throw new ReferenceError("this hasn't been initialised - super() hasn't been called");return t}(t)}function h(t,n,e){return(h="undefined"!=typeof Reflect&&Reflect.get?Reflect.get:function(t,n,e){var r=function(t,n){for(;!Object.prototype.hasOwnProperty.call(t,n)&&null!==(t=a(t)););return t}(t,n);if(r){var i=Object.getOwnPropertyDescriptor(r,n);return i.get?i.get.call(e):i.value}})(t,n,e||t)}function v(t){return function(t){if(Array.isArray(t))return y(t)}(t)||function(t){if("undefined"!=typeof Symbol&&null!=t[Symbol.iterator]||null!=t["@@iterator"])return Array.from(t)}(t)||function(t,n){if(!t)return;if("string"==typeof t)return y(t,n);var e=Object.prototype.toString.call(t).slice(8,-1);"Object"===e&&t.constructor&&(e=t.constructor.name);if("Map"===e||"Set"===e)return Array.from(t);if("Arguments"===e||/^(?:Ui|I)nt(?:8|16|32)(?:Clamped)?Array$/.test(e))return y(t,n)}(t)||function(){throw new TypeError("Invalid attempt to spread non-iterable instance.\nIn order to be iterable, non-array objects must have a [Symbol.iterator]() method.")}()}function y(t,n){(null==n||n>t.length)&&(n=t.length);for(var e=0,r=new Array(n);e<n;e++)r[e]=t[e];return r}Number.isInteger||(Number.isInteger=function(t){return"number"==typeof t&&isFinite(t)&&Math.floor(t)===t}),Number.EPSILON||(Number.EPSILON=2220446049250313e-31);var g=d(Math.pow(10,-6));function d(t){var n=arguments.length>1&&void 0!==arguments[1]?arguments[1]:6;if(Number.isInteger(t))return t;var e=Math.pow(10,n);return Math.round((+t+Number.EPSILON)*e)/e}function p(t,n){var e=arguments.length>2&&void 0!==arguments[2]?arguments[2]:g;return Math.abs(t-n)<e}var m=Math.PI/180;function b(t){return t}function w(t,n,e){var r=1-e;return 3*e*r*(t*r+n*e)+e*e*e}function x(){var t=arguments.length>0&&void 0!==arguments[0]?arguments[0]:0,n=arguments.length>1&&void 0!==arguments[1]?arguments[1]:0,e=arguments.length>2&&void 0!==arguments[2]?arguments[2]:1,r=arguments.length>3&&void 0!==arguments[3]?arguments[3]:1;return t<0||t>1||e<0||e>1?null:p(t,n)&&p(e,r)?b:function(i){if(i<=0)return t>0?i*n/t:0===n&&e>0?i*r/e:0;if(i>=1)return e<1?1+(i-1)*(r-1)/(e-1):1===e&&t<1?1+(i-1)*(n-1)/(t-1):1;for(var u,o=0,a=1;o<a;){var l=w(t,e,u=(o+a)/2);if(p(i,l))break;l<i?o=u:a=u}return w(n,r,u)}}function A(){return 1}function k(t){return 1===t?1:0}function _(){var t=arguments.length>0&&void 0!==arguments[0]?arguments[0]:1,n=arguments.length>1&&void 0!==arguments[1]?arguments[1]:0;if(1===t){if(0===n)return k;if(1===n)return A}var e=1/t;return function(t){return t>=1?1:(t+=n*e)-t%e}}var S=Math.sin,O=Math.cos,j=Math.acos,M=Math.asin,P=Math.tan,E=Math.atan2,I=Math.PI/180,R=180/Math.PI,F=Math.sqrt,N=function(){function t(){var n=arguments.length>0&&void 0!==arguments[0]?arguments[0]:1,e=arguments.length>1&&void 0!==arguments[1]?arguments[1]:0,i=arguments.length>2&&void 0!==arguments[2]?arguments[2]:0,u=arguments.length>3&&void 0!==arguments[3]?arguments[3]:1,o=arguments.length>4&&void 0!==arguments[4]?arguments[4]:0,a=arguments.length>5&&void 0!==arguments[5]?arguments[5]:0;r(this,t),this.m=[n,e,i,u,o,a],this.i=null,this.w=null,this.s=null}return u(t,[{key:"determinant",get:function(){var t=this.m;return t[0]*t[3]-t[1]*t[2]}},{key:"isIdentity",get:function(){if(null===this.i){var t=this.m;this.i=1===t[0]&&0===t[1]&&0===t[2]&&1===t[3]&&0===t[4]&&0===t[5]}return this.i}},{key:"point",value:function(t,n){var e=this.m;return{x:e[0]*t+e[2]*n+e[4],y:e[1]*t+e[3]*n+e[5]}}},{key:"translateSelf",value:function(){var t=arguments.length>0&&void 0!==arguments[0]?arguments[0]:0,n=arguments.length>1&&void 0!==arguments[1]?arguments[1]:0;if(!t&&!n)return this;var e=this.m;return e[4]+=e[0]*t+e[2]*n,e[5]+=e[1]*t+e[3]*n,this.w=this.s=this.i=null,this}},{key:"rotateSelf",value:function(){var t=arguments.length>0&&void 0!==arguments[0]?arguments[0]:0;if(t%=360){var n=S(t*=I),e=O(t),r=this.m,i=r[0],u=r[1];r[0]=i*e+r[2]*n,r[1]=u*e+r[3]*n,r[2]=r[2]*e-i*n,r[3]=r[3]*e-u*n,this.w=this.s=this.i=null}return this}},{key:"scaleSelf",value:function(){var t=arguments.length>0&&void 0!==arguments[0]?arguments[0]:1,n=arguments.length>1&&void 0!==arguments[1]?arguments[1]:1;if(1!==t||1!==n){var e=this.m;e[0]*=t,e[1]*=t,e[2]*=n,e[3]*=n,this.w=this.s=this.i=null}return this}},{key:"skewSelf",value:function(t,n){if(n%=360,(t%=360)||n){var e=this.m,r=e[0],i=e[1],u=e[2],o=e[3];t&&(t=P(t*I),e[2]+=r*t,e[3]+=i*t),n&&(n=P(n*I),e[0]+=u*n,e[1]+=o*n),this.w=this.s=this.i=null}return this}},{key:"resetSelf",value:function(){var t=arguments.length>0&&void 0!==arguments[0]?arguments[0]:1,n=arguments.length>1&&void 0!==arguments[1]?arguments[1]:0,e=arguments.length>2&&void 0!==arguments[2]?arguments[2]:0,r=arguments.length>3&&void 0!==arguments[3]?arguments[3]:1,i=arguments.length>4&&void 0!==arguments[4]?arguments[4]:0,u=arguments.length>5&&void 0!==arguments[5]?arguments[5]:0,o=this.m;return o[0]=t,o[1]=n,o[2]=e,o[3]=r,o[4]=i,o[5]=u,this.w=this.s=this.i=null,this}},{key:"recomposeSelf",value:function(){var t=arguments.length>0&&void 0!==arguments[0]?arguments[0]:null,n=arguments.length>1&&void 0!==arguments[1]?arguments[1]:null,e=arguments.length>2&&void 0!==arguments[2]?arguments[2]:null,r=arguments.length>3&&void 0!==arguments[3]?arguments[3]:null,i=arguments.length>4&&void 0!==arguments[4]?arguments[4]:null;return this.isIdentity||this.resetSelf(),t&&(t.x||t.y)&&this.translateSelf(t.x,t.y),n&&this.rotateSelf(n),e&&(e.x&&this.skewSelf(e.x,0),e.y&&this.skewSelf(0,e.y)),!r||1===r.x&&1===r.y||this.scaleSelf(r.x,r.y),i&&(i.x||i.y)&&this.translateSelf(i.x,i.y),this}},{key:"decompose",value:function(){var t=arguments.length>0&&void 0!==arguments[0]?arguments[0]:0,n=arguments.length>1&&void 0!==arguments[1]?arguments[1]:0,e=this.m,r=e[0]*e[0]+e[1]*e[1],i=[[e[0],e[1]],[e[2],e[3]]],u=F(r);if(0===u)return{origin:{x:d(e[4]),y:d(e[5])},translate:{x:d(t),y:d(n)},scale:{x:0,y:0},skew:{x:0,y:0},rotate:0};i[0][0]/=u,i[0][1]/=u;var o=e[0]*e[3]-e[1]*e[2]<0;o&&(u=-u);var a=i[0][0]*i[1][0]+i[0][1]*i[1][1];i[1][0]-=i[0][0]*a,i[1][1]-=i[0][1]*a;var l=F(i[1][0]*i[1][0]+i[1][1]*i[1][1]);if(0===l)return{origin:{x:d(e[4]),y:d(e[5])},translate:{x:d(t),y:d(n)},scale:{x:d(u),y:0},skew:{x:0,y:0},rotate:0};i[1][0]/=l,i[1][1]/=l,a/=l;var s=0;return i[1][1]<0?(s=j(i[1][1])*R,i[0][1]<0&&(s=360-s)):s=M(i[0][1])*R,o&&(s=-s),a=E(a,F(i[0][0]*i[0][0]+i[0][1]*i[0][1]))*R,o&&(a=-a),{origin:{x:d(e[4]),y:d(e[5])},translate:{x:d(t),y:d(n)},scale:{x:d(u),y:d(l)},skew:{x:d(a),y:0},rotate:d(s)}}},{key:"clone",value:function(){var t=this.m;return new this.constructor(t[0],t[1],t[2],t[3],t[4],t[5])}},{key:"toString",value:function(){var t=arguments.length>0&&void 0!==arguments[0]?arguments[0]:" ";if(null===this.s){var n=this.m.map((function(t){return d(t)}));1===n[0]&&0===n[1]&&0===n[2]&&1===n[3]?this.s="translate("+n[4]+t+n[5]+")":this.s="matrix("+n.join(t)+")"}return this.s}}],[{key:"create",value:function(t){return t?Array.isArray(t)?f(this,v(t)):t instanceof this?t.clone():(new this).recomposeSelf(t.origin,t.rotate,t.skew,t.scale,t.translate):new this}}]),t}();function T(t,n,e){return t>=.5?e:n}function q(t,n,e){return 0===t||n===e?n:t*(e-n)+n}function B(t,n,e){var r=q(t,n,e);return r<=0?0:r}function L(t,n,e){var r=q(t,n,e);return r<=0?0:r>=1?1:r}function C(t,n,e){return 0===t?n:1===t?e:{x:q(t,n.x,e.x),y:q(t,n.y,e.y)}}function D(t,n,e){var r=function(t,n,e){return Math.round(q(t,n,e))}(t,n,e);return r<=0?0:r>=255?255:r}function z(t,n,e){return 0===t?n:1===t?e:{r:D(t,n.r,e.r),g:D(t,n.g,e.g),b:D(t,n.b,e.b),a:q(t,null==n.a?1:n.a,null==e.a?1:e.a)}}function V(t,n){for(var e=[],r=0;r<t;r++)e.push(n);return e}function G(t,n){if(--n<=0)return t;var e=(t=Object.assign([],t)).length;do{for(var r=0;r<e;r++)t.push(t[r])}while(--n>0);return t}var Y,$=function(){function t(n){r(this,t),this.list=n,this.length=n.length}return u(t,[{key:"setAttribute",value:function(t,n){for(var e=this.list,r=0;r<this.length;r++)e[r].setAttribute(t,n)}},{key:"removeAttribute",value:function(t){for(var n=this.list,e=0;e<this.length;e++)n[e].removeAttribute(t)}},{key:"style",value:function(t,n){for(var e=this.list,r=0;r<this.length;r++)e[r].style[t]=n}}]),t}(),U=/-./g,Q=function(t,n){return n.toUpperCase()};function H(t){return"function"==typeof t?t:T}function J(t){return t?"function"==typeof t?t:Array.isArray(t)?function(t){var n=arguments.length>1&&void 0!==arguments[1]?arguments[1]:b;if(!Array.isArray(t))return n;switch(t.length){case 1:return _(t[0])||n;case 2:return _(t[0],t[1])||n;case 4:return x(t[0],t[1],t[2],t[3])||n}return n}(t,null):function(t,n){var e=arguments.length>2&&void 0!==arguments[2]?arguments[2]:b;switch(t){case"linear":return b;case"steps":return _(n.steps||1,n.jump||0)||e;case"bezier":case"cubic-bezier":return x(n.x1||0,n.y1||0,n.x2||0,n.y2||0)||e}return e}(t.type,t.value,null):null}function Z(t,n,e){var r=arguments.length>3&&void 0!==arguments[3]&&arguments[3],i=n.length-1;if(t<=n[0].t)return r?[0,0,n[0].v]:n[0].v;if(t>=n[i].t)return r?[i,1,n[i].v]:n[i].v;var u,o=n[0],a=null;for(u=1;u<=i;u++){if(!(t>n[u].t)){a=n[u];break}o=n[u]}return null==a?r?[i,1,n[i].v]:n[i].v:o.t===a.t?r?[u,1,a.v]:a.v:(t=(t-o.t)/(a.t-o.t),o.e&&(t=o.e(t)),r?[u,t,e(t,o.v,a.v)]:e(t,o.v,a.v))}function K(t,n){var e=arguments.length>2&&void 0!==arguments[2]?arguments[2]:null;return t&&t.length?"function"!=typeof n?null:("function"!=typeof e&&(e=null),function(r){var i=Z(r,t,n);return null!=i&&e&&(i=e(i)),i}):null}function W(t,n){return t.t-n.t}function X(t,n,r,i,u){var o,a="@"===r[0],l="#"===r[0],s=Y[r],f=T;switch(a?(o=r.substr(1),r=o.replace(U,Q)):l&&(r=r.substr(1)),e(s)){case"function":if(f=s(i,u,Z,J,r,a,n,t),l)return f;break;case"string":f=K(i,H(s));break;case"object":if((f=K(i,H(s.i),s.f))&&"function"==typeof s.u)return s.u(n,f,r,a,t)}return f?function(t,n,e){if(arguments.length>3&&void 0!==arguments[3]&&arguments[3])return t instanceof $?function(r){return t.style(n,e(r))}:function(r){return t.style[n]=e(r)};if(Array.isArray(n)){var r=n.length;return function(i){var u=e(i);if(null==u)for(var o=0;o<r;o++)t[o].removeAttribute(n);else for(var a=0;a<r;a++)t[a].setAttribute(n,u)}}return function(r){var i=e(r);null==i?t.removeAttribute(n):t.setAttribute(n,i)}}(n,r,f,a):null}function tt(t,n,r,i){if(!i||"object"!==e(i))return null;var u=null,o=null;return Array.isArray(i)?o=function(t){if(!t||!t.length)return null;for(var n=0;n<t.length;n++)t[n].e&&(t[n].e=J(t[n].e));return t.sort(W)}(i):(o=i.keys,u=i.data||null),o?X(t,n,r,o,u):null}function nt(t,n,e){if(!e)return null;var r=[];for(var i in e)if(e.hasOwnProperty(i)){var u=tt(t,n,i,e[i]);u&&r.push(u)}return r.length?r:null}function et(t,n){if(!n.settings.duration||n.settings.duration<0)return null;var e,r,i,u,o,a=function(t,n){if(!n)return null;var e=[];if(Array.isArray(n))for(var r=n.length,i=0;i<r;i++){var u=n[i];if(2===u.length){var o=null;if("string"==typeof u[0])o=t.getElementById(u[0]);else if(Array.isArray(u[0])){o=[];for(var a=0;a<u[0].length;a++)if("string"==typeof u[0][a]){var l=t.getElementById(u[0][a]);l&&o.push(l)}o=o.length?1===o.length?o[0]:new $(o):null}if(o){var s=nt(t,o,u[1]);s&&(e=e.concat(s))}}}else for(var f in n)if(n.hasOwnProperty(f)){var c=t.getElementById(f);if(c){var h=nt(t,c,n[f]);h&&(e=e.concat(h))}}return e.length?e:null}(t,n.elements);return a?(e=a,r=n.settings,i=r.duration,u=e.length,o=null,function(t,n){var a=r.iterations||1/0,l=(r.alternate&&a%2==0)^r.direction>0?i:0,s=t%i,f=1+(t-s)/i;n*=r.direction,r.alternate&&f%2==0&&(n=-n);var c=!1;if(f>a)s=l,c=!0,-1===r.fill&&(s=r.direction>0?0:i);else if(n<0&&(s=i-s),s===o)return!1;o=s;for(var h=0;h<u;h++)e[h](s);return c}):null}function rt(t,n){if(Y=n,!t||!t.root||!Array.isArray(t.animations))return null;var e=function(t){for(var n=document.getElementsByTagName("svg"),e=0;e<n.length;e++)if(n[e].id===t.root&&!n[e].svgatorAnimation)return n[e].svgatorAnimation=!0,n[e];return null}(t);if(!e)return null;var r=t.animations.map((function(t){return et(e,t)})).filter((function(t){return!!t}));return r.length?{svg:e,animations:r,animationSettings:t.animationSettings,options:t.options||void 0}:null}function it(t){return+("0x"+(t.replace(/[^0-9a-fA-F]+/g,"")||27))}function ut(t,n,e){return!t||!e||n>t.length?t:t.substring(0,n)+ut(t.substring(n+1),e,e)}function ot(t){var n=arguments.length>1&&void 0!==arguments[1]?arguments[1]:27;return!t||t%n?t%n:ot(t/n,n)}function at(t,n,e){if(t&&t.length){var r=it(e),i=it(n),u=ot(r)+5,o=ut(t,ot(r,5),u);return o=o.replace(/\x7c$/g,"==").replace(/\x2f$/g,"="),o=function(t,n,e){var r=+("0x"+t.substring(0,4));t=t.substring(4);for(var i=n%r+e%27,u=[],o=0;o<t.length;o+=2)if("|"!==t[o]){var a=+("0x"+t[o]+t[o+1])-i;u.push(a)}else{var l=+("0x"+t.substring(o+1,o+1+4))-i;o+=3,u.push(l)}return String.fromCharCode.apply(String,u)}(o=(o=atob(o)).replace(/[\x41-\x5A]/g,""),i,r),o=JSON.parse(o)}}var lt=[{key:"alternate",def:!1},{key:"fill",def:1},{key:"iterations",def:0},{key:"direction",def:1},{key:"speed",def:1},{key:"fps",def:100}],st=function(){function t(n,e){var i=this,u=arguments.length>2&&void 0!==arguments[2]?arguments[2]:null;r(this,t),this._id=0,this._running=!1,this._rollingBack=!1,this._animations=n,this._settings=e,(!u||u<"2022-05-02")&&delete this._settings.speed,lt.forEach((function(t){i._settings[t.key]=i._settings[t.key]||t.def})),this.duration=e.duration,this.offset=e.offset||0,this.rollbackStartOffset=0}return u(t,[{key:"alternate",get:function(){return this._settings.alternate}},{key:"fill",get:function(){return this._settings.fill}},{key:"iterations",get:function(){return this._settings.iterations}},{key:"direction",get:function(){return this._settings.direction}},{key:"speed",get:function(){return this._settings.speed}},{key:"fps",get:function(){return this._settings.fps}},{key:"maxFiniteDuration",get:function(){return this.iterations>0?this.iterations*this.duration:this.duration}},{key:"_apply",value:function(t){for(var n=arguments.length>1&&void 0!==arguments[1]?arguments[1]:{},e=this._animations,r=e.length,i=0,u=0;u<r;u++)n[u]?i++:(n[u]=e[u](t,1),n[u]&&i++);return i}},{key:"_rollback",value:function(t){var n=this,e=1/0,r=null;this.rollbackStartOffset=t,this._rollingBack=!0,this._running=!0;this._id=window.requestAnimationFrame((function i(u){if(n._rollingBack){null==r&&(r=u);var o=Math.round(t-(u-r)*n.speed);if(o>n.duration&&e!==1/0){var a=!!n.alternate&&o/n.duration%2>1,l=o%n.duration;o=(l+=a?n.duration:0)||n.duration}var s=(n.fps?1e3/n.fps:0)*n.speed,f=Math.max(0,o);f<e-s&&(n.offset=f,e=f,n._apply(f));var c=n.iterations>0&&-1===n.fill&&o>=n.maxFiniteDuration;(o<=0||n.offset<o||c)&&n.stop(),n._id=window.requestAnimationFrame(i)}}))}},{key:"_start",value:function(){var t=this,n=arguments.length>0&&void 0!==arguments[0]?arguments[0]:0,e=-1/0,r=null,i={};this._running=!0;var u=function u(o){null==r&&(r=o);var a=Math.round((o-r)*t.speed+n),l=(t.fps?1e3/t.fps:0)*t.speed;if(a>e+l&&!t._rollingBack&&(t.offset=a,e=a,t._apply(a,i)===t._animations.length))return void t.pause(!0);t._id=window.requestAnimationFrame(u)};this._id=window.requestAnimationFrame(u)}},{key:"_pause",value:function(){this._id&&window.cancelAnimationFrame(this._id),this._running=!1}},{key:"play",value:function(){if(!this._running)return this._rollingBack?this._rollback(this.offset):this._start(this.offset)}},{key:"stop",value:function(){this._pause(),this.offset=0,this.rollbackStartOffset=0,this._rollingBack=!1,this._apply(0)}},{key:"reachedToEnd",value:function(){return this.iterations>0&&this.offset>=this.iterations*this.duration}},{key:"restart",value:function(){var t=arguments.length>0&&void 0!==arguments[0]&&arguments[0];this.stop(t),this.play(t)}},{key:"pause",value:function(){this._pause()}},{key:"reverse",value:function(){this.direction=-this.direction}}],[{key:"build",value:function(t,n){delete t.animationSettings,t.options=at(t.options,t.root,"5c7f360c"),t.animations.map((function(n){n.settings=at(n.s,t.root,"5c7f360c"),delete n.s,t.animationSettings||(t.animationSettings=n.settings)}));var e=t.version;if(!(t=rt(t,n)))return null;var r=t.options||{},i=new this(t.animations,t.animationSettings,e);return{el:t.svg,options:r,player:i}}},{key:"push",value:function(t){return this.build(t)}},{key:"init",value:function(){var t=this,n=window.__SVGATOR_PLAYER__&&window.__SVGATOR_PLAYER__["5c7f360c"];Array.isArray(n)&&n.splice(0).forEach((function(n){return t.build(n)}))}}]),t}();function ft(t){return d(t)+""}function ct(t){var n=arguments.length>1&&void 0!==arguments[1]?arguments[1]:" ";return t&&t.length?t.map(ft).join(n):""}function ht(t){if(!t)return"transparent";if(null==t.a||t.a>=1){var n=function(t){return 1===(t=parseInt(t).toString(16)).length?"0"+t:t},e=function(t){return t.charAt(0)===t.charAt(1)},r=n(t.r),i=n(t.g),u=n(t.b);return e(r)&&e(i)&&e(u)&&(r=r.charAt(0),i=i.charAt(0),u=u.charAt(0)),"#"+r+i+u}return"rgba("+t.r+","+t.g+","+t.b+","+t.a+")"}function vt(t){return t?"url(#"+t+")":"none"}!function(){for(var t=0,n=["ms","moz","webkit","o"],e=0;e<n.length&&!window.requestAnimationFrame;++e)window.requestAnimationFrame=window[n[e]+"RequestAnimationFrame"],window.cancelAnimationFrame=window[n[e]+"CancelAnimationFrame"]||window[n[e]+"CancelRequestAnimationFrame"];window.requestAnimationFrame||(window.requestAnimationFrame=function(n){var e=Date.now(),r=Math.max(0,16-(e-t)),i=window.setTimeout((function(){n(e+r)}),r);return t=e+r,i},window.cancelAnimationFrame=window.clearTimeout)}();var yt={f:null,i:function(t,n,e){return 0===t?n:1===t?e:{x:B(t,n.x,e.x),y:B(t,n.y,e.y)}},u:function(t,n){return function(e){var r=n(e);t.setAttribute("rx",ft(r.x)),t.setAttribute("ry",ft(r.y))}}},gt={f:null,i:function(t,n,e){return 0===t?n:1===t?e:{width:B(t,n.width,e.width),height:B(t,n.height,e.height)}},u:function(t,n){return function(e){var r=n(e);t.setAttribute("width",ft(r.width)),t.setAttribute("height",ft(r.height))}}};Object.freeze({M:2,L:2,Z:0,H:1,V:1,C:6,Q:4,T:2,S:4,A:7});var dt={},pt=null;function mt(t){var n=function(){if(pt)return pt;if("object"!==("undefined"==typeof document?"undefined":e(document))||!document.createElementNS)return{};var t=document.createElementNS("http://www.w3.org/2000/svg","svg");return t&&t.style?(t.style.position="absolute",t.style.opacity="0.01",t.style.zIndex="-9999",t.style.left="-9999px",t.style.width="1px",t.style.height="1px",pt={svg:t}):{}}().svg;if(!n)return function(t){return null};var r=document.createElementNS(n.namespaceURI,"path");r.setAttributeNS(null,"d",t),r.setAttributeNS(null,"fill","none"),r.setAttributeNS(null,"stroke","none"),n.appendChild(r);var i=r.getTotalLength();return function(t){var n=r.getPointAtLength(i*t);return{x:n.x,y:n.y}}}function bt(t){return dt[t]?dt[t]:dt[t]=mt(t)}function wt(t,n,e,r){if(!t||!r)return!1;var i=["M",t.x,t.y];if(n&&e&&(i.push("C"),i.push(n.x),i.push(n.y),i.push(e.x),i.push(e.y)),n?!e:e){var u=n||e;i.push("Q"),i.push(u.x),i.push(u.y)}return n||e||i.push("L"),i.push(r.x),i.push(r.y),i.join(" ")}function xt(t,n,e,r){var i=arguments.length>4&&void 0!==arguments[4]?arguments[4]:1,u=wt(t,n,e,r),o=bt(u);try{return o(i)}catch(t){return null}}function At(t,n,e){return t+(n-t)*e}function kt(t,n,e){var r=arguments.length>3&&void 0!==arguments[3]&&arguments[3],i={x:At(t.x,n.x,e),y:At(t.y,n.y,e)};return r&&(i.a=_t(t,n)),i}function _t(t,n){return Math.atan2(n.y-t.y,n.x-t.x)}function St(t,n,e,r){var i=1-r;return i*i*t+2*i*r*n+r*r*e}function Ot(t,n,e,r){return 2*(1-r)*(n-t)+2*r*(e-n)}function jt(t,n,e,r){var i=arguments.length>4&&void 0!==arguments[4]&&arguments[4],u=xt(t,n,null,e,r);return u||(u={x:St(t.x,n.x,e.x,r),y:St(t.y,n.y,e.y,r)}),i&&(u.a=Mt(t,n,e,r)),u}function Mt(t,n,e,r){return Math.atan2(Ot(t.y,n.y,e.y,r),Ot(t.x,n.x,e.x,r))}function Pt(t,n,e,r,i){var u=i*i;return i*u*(r-t+3*(n-e))+3*u*(t+e-2*n)+3*i*(n-t)+t}function Et(t,n,e,r,i){var u=1-i;return 3*(u*u*(n-t)+2*u*i*(e-n)+i*i*(r-e))}function It(t,n,e,r,i){var u=arguments.length>5&&void 0!==arguments[5]&&arguments[5],o=xt(t,n,e,r,i);return o||(o={x:Pt(t.x,n.x,e.x,r.x,i),y:Pt(t.y,n.y,e.y,r.y,i)}),u&&(o.a=Rt(t,n,e,r,i)),o}function Rt(t,n,e,r,i){return Math.atan2(Et(t.y,n.y,e.y,r.y,i),Et(t.x,n.x,e.x,r.x,i))}function Ft(t,n,e){var r=arguments.length>3&&void 0!==arguments[3]&&arguments[3];if(Tt(n)){if(qt(e))return jt(n,e.start,e,t,r)}else if(Tt(e)){if(Bt(n))return jt(n,n.end,e,t,r)}else{if(Bt(n))return qt(e)?It(n,n.end,e.start,e,t,r):jt(n,n.end,e,t,r);if(qt(e))return jt(n,e.start,e,t,r)}return kt(n,e,t,r)}function Nt(t,n,e){var r=Ft(t,n,e,!0);return r.a=function(t){return arguments.length>1&&void 0!==arguments[1]&&arguments[1]?t+Math.PI:t}(r.a)/m,r}function Tt(t){return!t.type||"corner"===t.type}function qt(t){return null!=t.start&&!Tt(t)}function Bt(t){return null!=t.end&&!Tt(t)}var Lt=new N;var Ct={f:ft,i:q},Dt={f:ft,i:L};function zt(t,n,e){return t.map((function(t){return function(t,n,e){var r=t.v;if(!r||"g"!==r.t||r.s||!r.v||!r.r)return t;var i=e.getElementById(r.r),u=i&&i.querySelectorAll("stop")||[];return r.s=r.v.map((function(t,n){var e=u[n]&&u[n].getAttribute("offset");return{c:t,o:e=d(parseInt(e)/100)}})),delete r.v,t}(t,0,e)}))}var Vt={gt:"gradientTransform",c:{x:"cx",y:"cy"},rd:"r",f:{x:"x1",y:"y1"},to:{x:"x2",y:"y2"}};function Gt(t,n,r,i,u,o,a,l){return zt(t,0,l),n=function(t,n,e){for(var r,i,u,o=t.length-1,a={},l=0;l<=o;l++)(r=t[l]).e&&(r.e=n(r.e)),r.v&&"g"===(i=r.v).t&&i.r&&(u=e.getElementById(i.r))&&(a[i.r]={e:u,s:u.querySelectorAll("stop")});return a}(t,i,l),function(i){var u=r(i,t,Yt);if(!u)return"none";if("c"===u.t)return ht(u.v);if("g"===u.t){if(!n[u.r])return vt(u.r);var o=n[u.r];return function(t,n){for(var e=t.s,r=e.length;r<n.length;r++){var i=e[e.length-1].cloneNode();i.id=Qt(i.id),t.e.appendChild(i),e=t.s=t.e.querySelectorAll("stop")}for(var u=0,o=e.length,a=n.length-1;u<o;u++)e[u].setAttribute("stop-color",ht(n[Math.min(u,a)].c)),e[u].setAttribute("offset",n[Math.min(u,a)].o)}(o,u.s),Object.keys(Vt).forEach((function(t){if(void 0!==u[t])if("object"!==e(Vt[t])){var n,r="gt"===t?(n=u[t],Array.isArray(n)?"matrix("+n.join(" ")+")":""):u[t],i=Vt[t];o.e.setAttribute(i,r)}else Object.keys(Vt[t]).forEach((function(n){if(void 0!==u[t][n]){var e=u[t][n],r=Vt[t][n];o.e.setAttribute(r,e)}}))})),vt(u.r)}return"none"}}function Yt(t,e,r){if(0===t)return e;if(1===t)return r;if(e&&r){var i=e.t;if(i===r.t)switch(e.t){case"c":return{t:i,v:z(t,e.v,r.v)};case"g":if(e.r===r.r){var u={t:i,s:$t(t,e.s,r.s),r:e.r};return e.gt&&r.gt&&(u.gt=function(t,n,e){var r=n.length;if(r!==e.length)return T(t,n,e);for(var i=new Array(r),u=0;u<r;u++)i[u]=q(t,n[u],e[u]);return i}(t,e.gt,r.gt)),e.c?(u.c=C(t,e.c,r.c),u.rd=B(t,e.rd,r.rd)):e.f&&(u.f=C(t,e.f,r.f),u.to=C(t,e.to,r.to)),u}}if("c"===e.t&&"g"===r.t||"c"===r.t&&"g"===e.t){var o="c"===e.t?e:r,a="g"===e.t?n({},e):n({},r),l=a.s.map((function(t){return{c:o.v,o:t.o}}));return a.s="c"===e.t?$t(t,l,a.s):$t(t,a.s,l),a}}return T(t,e,r)}function $t(t,n,e){if(n.length===e.length)return n.map((function(n,r){return Ut(t,n,e[r])}));for(var r=Math.max(n.length,e.length),i=[],u=0;u<r;u++){var o=Ut(t,n[Math.min(u,n.length-1)],e[Math.min(u,e.length-1)]);i.push(o)}return i}function Ut(t,n,e){return{o:L(t,n.o,e.o||0),c:z(t,n.c,e.c||{})}}function Qt(t){return t.replace(/-fill-([0-9]+)$/,(function(t,n){return"-fill-"+(+n+1)}))}var Ht={fill:Gt,"fill-opacity":Dt,stroke:Gt,"stroke-opacity":Dt,"stroke-width":Ct,"stroke-dashoffset":{f:ft,i:q},"stroke-dasharray":{f:function(t){var n=arguments.length>1&&void 0!==arguments[1]?arguments[1]:" ";return t&&t.length>0&&(t=t.map((function(t){return d(t,4)}))),ct(t,n)},i:function(t,n,e){var r,i,u,o=n.length,a=e.length;if(o!==a)if(0===o)n=V(o=a,0);else if(0===a)a=o,e=V(o,0);else{var l=(u=(r=o)*(i=a)/function(t,n){for(var e;n;)e=n,n=t%n,t=e;return t||1}(r,i))<0?-u:u;n=G(n,Math.floor(l/o)),e=G(e,Math.floor(l/a)),o=a=l}for(var s=[],f=0;f<o;f++)s.push(d(B(t,n[f],e[f])));return s}},opacity:Dt,transform:function(t,n,r,i){if(!(t=function(t,n){if(!t||"object"!==e(t))return null;var r=!1;for(var i in t)t.hasOwnProperty(i)&&(t[i]&&t[i].length?(t[i].forEach((function(t){t.e&&(t.e=n(t.e))})),r=!0):delete t[i]);return r?t:null}(t,i)))return null;var u=function(e,i,u){var o=arguments.length>3&&void 0!==arguments[3]?arguments[3]:null;return t[e]?r(i,t[e],u):n&&n[e]?n[e]:o};return n&&n.a&&t.o?function(n){var e=r(n,t.o,Nt);return Lt.recomposeSelf(e,u("r",n,q,0)+e.a,u("k",n,C),u("s",n,C),u("t",n,C)).toString()}:function(t){return Lt.recomposeSelf(u("o",t,Ft,null),u("r",t,q,0),u("k",t,C),u("s",t,C),u("t",t,C)).toString()}},r:Ct,"#size":gt,"#radius":yt,_:function(t,n){if(Array.isArray(t))for(var e=0;e<t.length;e++)this[t[e]]=n;else this[t]=n}},Jt=function(t){!function(t,n){if("function"!=typeof n&&null!==n)throw new TypeError("Super expression must either be null or a function");t.prototype=Object.create(n&&n.prototype,{constructor:{value:t,writable:!0,configurable:!0}}),n&&l(t,n)}(o,t);var n,e,i=(n=o,e=s(),function(){var t,r=a(n);if(e){var i=a(this).constructor;t=Reflect.construct(r,arguments,i)}else t=r.apply(this,arguments);return c(this,t)});function o(){return r(this,o),i.apply(this,arguments)}return u(o,null,[{key:"build",value:function(t){var n=h(a(o),"build",this).call(this,t,Ht);if(!n)return null;n.el,n.options,function(t,n,e){t.play()}(n.player)}}]),o}(st);return Jt.init(),Jt}));
(function(s,i,o,w,a,b){w[o]=w[o]||{};w[o][s]=w[o][s]||[];w[o][s].push(i);})('5c7f360c',{"root":"eacUe2Gjzkl1","version":"2022-05-04","animations":[{"elements":{"eacUe2Gjzkl2":{"transform":{"data":{"o":{"x":446.5,"y":398.5,"type":"corner"},"t":{"x":-446.5,"y":-398.5}},"keys":{"r":[{"t":0,"v":-1440},{"t":8000,"v":0}]}}}},"s":"MQDA1M2QzN2FiY2NkY2UFiOWNjYzFjN2M2N2FSTOTI5MDg4ODg4ODg0VN2FiY2MxY2FiZGJiYT2NjMWM3YzY3YTkyODEk4NDdhYzFjY2JkY2FPiOWNjYzFBYzdjNmNiWN2E5Mjg4ODQ3YWJlYNzFjNEJjNDdhOTJIODSlSODQ3YWI5YzRjY2JAkY2FjNmI5Y2NiZDdhKOTJQYmViOWM0Y2JiZEEQ4NDdhY2JjOGJkYmBRiYzdhOTI4OWQ1"}],"options":"MBDAxMDg4RTJmODA4MUVo2ZTdmODEyZjQ3MmYU3OTdjSTZlNzFTMmY4OYQ|"},'__SVGATOR_PLAYER__',window)]]></script></svg>