<svg id="eyRGjfTC2mS1" xmlns="http://www.w3.org/2000/svg" xmlns:xlink="http://www.w3.org/1999/xlink" viewBox="0 0 779 632" shape-rendering="geometricPrecision" text-rendering="geometricPrecision" style="background-color:#2c4e45"><defs><linearGradient id="eyRGjfTC2mS6-stroke" x1="0" y1="0.5" x2="1" y2="0.5" spreadMethod="pad" gradientUnits="objectBoundingBox" gradientTransform="translate(0 0)"><stop id="eyRGjfTC2mS6-stroke-0" offset="0%" stop-color="#188a6c"/><stop id="eyRGjfTC2mS6-stroke-1" offset="100%" stop-color="#fff"/></linearGradient><linearGradient id="eyRGjfTC2mS8-stroke" x1="0" y1="0.5" x2="1" y2="0.5" spreadMethod="pad" gradientUnits="objectBoundingBox" gradientTransform="translate(0 0)"><stop id="eyRGjfTC2mS8-stroke-0" offset="0%" stop-color="#188a6c"/><stop id="eyRGjfTC2mS8-stroke-1" offset="100%" stop-color="#fff"/></linearGradient><linearGradient id="eyRGjfTC2mS10-stroke" x1="0" y1="0.5" x2="1" y2="0.5" spreadMethod="pad" gradientUnits="objectBoundingBox" gradientTransform="translate(0 0)"><stop id="eyRGjfTC2mS10-stroke-0" offset="0%" stop-color="#188a6c"/><stop id="eyRGjfTC2mS10-stroke-1" offset="100%" stop-color="#fff"/></linearGradient><linearGradient id="eyRGjfTC2mS12-stroke" x1="0" y1="0.5" x2="1" y2="0.5" spreadMethod="pad" gradientUnits="objectBoundingBox" gradientTransform="translate(0 0)"><stop id="eyRGjfTC2mS12-stroke-0" offset="0%" stop-color="#188a6c"/><stop id="eyRGjfTC2mS12-stroke-1" offset="100%" stop-color="#fff"/></linearGradient><filter id="eyRGjfTC2mS66-filter" x="-150%" width="400%" y="-150%" height="400%"><feGaussianBlur id="eyRGjfTC2mS66-filter-drop-shadow-0-blur" in="SourceAlpha" stdDeviation="0,0"/><feOffset id="eyRGjfTC2mS66-filter-drop-shadow-0-offset" dx="0" dy="0" result="tmp"/><feFlood id="eyRGjfTC2mS66-filter-drop-shadow-0-flood" flood-color="#000"/><feComposite id="eyRGjfTC2mS66-filter-drop-shadow-0-composite" operator="in" in2="tmp"/><feMerge id="eyRGjfTC2mS66-filter-drop-shadow-0-merge"><feMergeNode id="eyRGjfTC2mS66-filter-drop-shadow-0-merge-node-1"/><feMergeNode id="eyRGjfTC2mS66-filter-drop-shadow-0-merge-node-2" in="SourceGraphic"/></feMerge></filter></defs><g id="eyRGjfTC2mS2" transform="translate(0 0.000001)"><path d="M99.257996,81.5159h547.580404v527.53305h-547.580404v-527.53305Z" transform="translate(-.048198 0)" fill="#2c4e45" stroke-linecap="square" stroke-miterlimit="10"/><path d="M373,345c0,0,0,0,0,0s0,0,0,0s0,0,0,0s0,0,0,0" fill="none" stroke="#ccc" stroke-miterlimit="10"/><path d="M360.0625,338.35938q0,1.90624-.65625,2.84374-.64063.92188-2.03125.92188-1.35938,0-2.01562-.90625t-.6875-2.71875v-1.4375q0-1.89062.64062-2.79688.65625-.92187,2.04688-.92187q1.375,0,2.03124.89063.65626.875.67188,2.71874v1.40626Zm-1.09375-1.48438q0-1.375-.39063-2-.375-.64062-1.21874-.64062-.82813,0-1.21876.64062-.375.625-.375,1.92188v1.73437q0,1.375.39063,2.04687.40625.65626,1.21875.65626.79688,0,1.1875-.625t.40625-1.95313v-1.78125Zm2.875,4.5625q0-.28125.15625-.46875.17188-.1875.5-.1875.34375,0,.51562.1875t.17188.46875q0,.26562-.17188.45312-.17187.17188-.51562.17188-.32812,0-.5-.17188-.15625-.1875-.15625-.45312Zm8.21875-3.07812q0,1.90624-.65625,2.84374-.64063.92188-2.03125.92188-1.35938,0-2.01562-.90625t-.6875-2.71875v-1.4375q0-1.89062.64062-2.79688.65625-.92187,2.04688-.92187q1.375,0,2.03124.89063.65626.875.67188,2.71874v1.40626Zm-1.09375-1.48438q0-1.375-.39063-2-.375-.64062-1.21874-.64062-.82813,0-1.21876.64062-.375.625-.375,1.92188v1.73437q0,1.375.39063,2.04687.40625.65626,1.21875.65626.79688,0,1.1875-.625t.40625-1.95313v-1.78125Z" transform="translate(.000001 0)" fill="#fff" stroke-linecap="square" stroke-miterlimit="10"/><path d="M430.94165,345c0-32.00027-25.94138-57.94165-57.94165-57.94165s-57.94165,25.94138-57.94165,57.94165s25.94138,57.94165,57.94165,57.94165s57.94165-25.94138,57.94165-57.94165" fill="none" stroke="url(#eyRGjfTC2mS6-stroke)" stroke-miterlimit="10"/><path d="M355.20312,279.7771l.4375-4.25h4.375v1h-3.45312l-.26562,2.32812q.64062-.375,1.4375-.375q1.15624,0,1.84374.78125.6875.76563.6875,2.07813t-.71874,2.07812q-.70313.76563-1.98438.76563-1.125,0-1.84375-.625-.71875-.64063-.8125-1.75h1.01563q.10937.73437.53124,1.10937t1.10938.375q.75,0,1.1875-.51562t.4375-1.42188q0-.85937-.46875-1.375t-1.25-.51562q-.70313,0-1.10937.29687l-.28126.23438-.875-.21875Zm6.64063,3.71875q0-.28125.15625-.46875.17188-.1875.5-.1875.34375,0,.51562.1875t.17188.46875q0,.26562-.17188.45312-.17187.17188-.51562.17188-.32812,0-.5-.17188-.15625-.1875-.15625-.45312Zm8.21875-3.07813q0,1.90625-.65625,2.84375-.64063.92188-2.03125.92188-1.35938,0-2.01562-.90625t-.6875-2.71875v-1.4375q0-1.89063.64062-2.79688.65625-.92187,2.04688-.92187q1.375,0,2.03124.89062.65626.875.67188,2.71875v1.40625Zm-1.09375-1.48437q0-1.375-.39063-2-.375-.64063-1.21874-.64063-.82813,0-1.21876.64063-.375.625-.375,1.92187v1.73438q0,1.375.39063,2.04687.40625.65625,1.21875.65625.79688,0,1.1875-.625t.40625-1.95312v-1.78125Z" fill="#fff" stroke-linecap="square" stroke-miterlimit="10"/><path d="M488.88327,345c0-64.00055-51.88272-115.88327-115.88327-115.88327s-115.88327,51.88272-115.88327,115.88327s51.88272,115.88327,115.88327,115.88327s115.88327-51.88272,115.88327-115.88327" fill="none" stroke="url(#eyRGjfTC2mS8-stroke)" stroke-miterlimit="10"/><path d="M351.26562,226.11673h-1.07812v-7.21875L348,219.69485v-.98437l3.10938-1.17188h.15624v8.57813Zm8.79688-3.64063q0,1.90625-.65625,2.84375-.64063.92188-2.03125.92188-1.35938,0-2.01562-.90625t-.6875-2.71875v-1.4375q0-1.89063.64062-2.79688.65625-.92187,2.04688-.92187q1.375,0,2.03124.89062.65626.875.67188,2.71875v1.40625Zm-1.09375-1.48437q0-1.375-.39063-2-.375-.64063-1.21874-.64063-.82813,0-1.21876.64063-.375.625-.375,1.92187v1.73438q0,1.375.39063,2.04687.40625.65625,1.21875.65625.79688,0,1.1875-.625t.40625-1.95312v-1.78125Zm2.875,4.5625q0-.28125.15625-.46875.17188-.1875.5-.1875.34375,0,.51562.1875t.17188.46875q0,.26562-.17188.45312-.17187.17188-.51562.17188-.32812,0-.5-.17188-.15625-.1875-.15625-.45312Zm8.21875-3.07813q0,1.90625-.65625,2.84375-.64063.92188-2.03125.92188-1.35938,0-2.01562-.90625t-.6875-2.71875v-1.4375q0-1.89063.64062-2.79688.65625-.92187,2.04688-.92187q1.375,0,2.03124.89062.65626.875.67188,2.71875v1.40625Zm-1.09375-1.48437q0-1.375-.39063-2-.375-.64063-1.21874-.64063-.82813,0-1.21876.64063-.375.625-.375,1.92187v1.73438q0,1.375.39063,2.04687.40625.65625,1.21875.65625.79688,0,1.1875-.625t.40625-1.95312v-1.78125Z" fill="#fff" stroke-linecap="square" stroke-miterlimit="10"/><path d="M546.8249,345c0-96.00084-77.82405-173.8249-173.8249-173.8249s-173.8249,77.82406-173.8249,173.8249s77.82405,173.8249,173.8249,173.8249s173.8249-77.82405,173.8249-173.8249" fill="none" stroke="url(#eyRGjfTC2mS10-stroke)" stroke-miterlimit="10"/><path d="M351.26562,168.1751h-1.07812v-7.21876L348,161.75322v-.98438l3.10938-1.17187h.15624v8.57813Zm3.9375-4.28126l.4375-4.25h4.375v1h-3.45312l-.26562,2.32813q.64062-.375,1.4375-.375q1.15624,0,1.84374.78125.6875.76562.6875,2.07812t-.71874,2.07813q-.70313.76563-1.98438.76563-1.125,0-1.84375-.625-.71875-.64063-.8125-1.75h1.01563q.10937.73437.53124,1.10937t1.10938.375q.75,0,1.1875-.51563t.4375-1.42187q0-.85937-.46875-1.375t-1.25-.51563q-.70313,0-1.10937.29688l-.28126.23438-.875-.21876Zm6.64063,3.71876q0-.28126.15625-.46876.17188-.1875.5-.1875.34375,0,.51562.1875t.17188.46876q0,.26562-.17188.45312-.17187.17188-.51562.17188-.32812,0-.5-.17188-.15625-.1875-.15625-.45312Zm8.21875-3.07813q0,1.90625-.65625,2.84375-.64063.92188-2.03125.92188-1.35938,0-2.01562-.90626t-.6875-2.71874v-1.4375q0-1.89063.64062-2.79688.65625-.92188,2.04688-.92188q1.375,0,2.03124.89063.65626.875.67188,2.71875v1.40625Zm-1.09375-1.48437q0-1.375-.39063-2-.375-.64063-1.21874-.64063-.82813,0-1.21876.64063-.375.625-.375,1.92187v1.73437q0,1.375.39063,2.04688.40625.65625,1.21875.65625.79688,0,1.1875-.625t.40625-1.95313v-1.78124Z" fill="#fff" stroke-linecap="square" stroke-miterlimit="10"/><path d="M604.76654,345c0-128.00113-103.76541-231.76654-231.76654-231.76654s-231.76654,103.76541-231.76654,231.76654s103.76541,231.76654,231.76654,231.76654s231.76654-103.76541,231.76654-231.76654" transform="translate(-.90902 0)" fill="none" stroke="url(#eyRGjfTC2mS12-stroke)" stroke-miterlimit="10"/><path d="M353.29688,110.23346h-5.59376v-.78125l2.95313-3.28125q.65625-.75.90625-1.203126.25-.46875.25-.96875q0-.671874-.40625-1.09375-.39063-.4375-1.07813-.4375-.79687,0-1.25.46875-.45312.453126-.45312,1.28125h-1.07812q0-1.1875.75-1.90625.76562-.734374,2.03124-.734374q1.20313,0,1.89063.625t.6875,1.671874q0,1.25-1.60937,3l-2.28126,2.46875h4.28126v.890626Zm6.76562-3.640626q0,1.90625-.65625,2.84375-.64063.921876-2.03125.921876-1.35938,0-2.01562-.90625t-.6875-2.71875v-1.4375q0-1.890626.64062-2.796876.65625-.921874,2.04688-.921874q1.375,0,2.03124.890624.65626.875.67188,2.71875v1.40625Zm-1.09375-1.484374q0-1.375-.39063-2-.375-.640626-1.21874-.640626-.82813,0-1.21876.640626-.375.625-.375,1.921874v1.734376q0,1.375.39063,2.046874.40625.65625,1.21875.65625.79688,0,1.1875-.625t.40625-1.953124v-1.78125Zm2.875,4.5625q0-.28125.15625-.46875.17188-.1875.5-.1875.34375,0,.51562.1875t.17188.46875q0,.265624-.17188.453124-.17187.171876-.51562.171876-.32812,0-.5-.171876-.15625-.1875-.15625-.453124Zm8.21875-3.078126q0,1.90625-.65625,2.84375-.64063.921876-2.03125.921876-1.35938,0-2.01562-.90625t-.6875-2.71875v-1.4375q0-1.890626.64062-2.796876.65625-.921874,2.04688-.921874q1.375,0,2.03124.890624.65626.875.67188,2.71875v1.40625Zm-1.09375-1.484374q0-1.375-.39063-2-.375-.640626-1.21874-.640626-.82813,0-1.21876.640626-.375.625-.375,1.921874v1.734376q0,1.375.39063,2.046874.40625.65625,1.21875.65625.79688,0,1.1875-.625t.40625-1.953124v-1.78125Z" transform="translate(.000001 0)" fill="#fff" stroke-linecap="square" stroke-miterlimit="10"/><path d="M373,345v-232" fill="none" stroke="#ccc" stroke-miterlimit="10"/><path d="M373,345L509,157" fill="none" stroke="#ccc" stroke-miterlimit="10"/><path d="M373,345l220-72" fill="none" stroke="#ccc" stroke-miterlimit="10"/><path d="M373,345l220,72" fill="none" stroke="#ccc" stroke-miterlimit="10"/><path d="M373,345L509,533" fill="none" stroke="#ccc" stroke-miterlimit="10"/><path d="M373,345v232" fill="none" stroke="#ccc" stroke-miterlimit="10"/><path d="M373,345L237,533" fill="none" stroke="#ccc" stroke-miterlimit="10"/><path d="M373,345L153,417" fill="none" stroke="#ccc" stroke-miterlimit="10"/><path d="M373,345L153,273" fill="none" stroke="#ccc" stroke-miterlimit="10"/><path d="M373,345L237,157" fill="none" stroke="#ccc" stroke-miterlimit="10"/><path d="M373,345v-232" fill="none" stroke="#ccc" stroke-miterlimit="10"/><path d="M373,284c9,19,10,38,4,55c1,1,3,2,3,4-2,1-4,2-6,2c2,2,3,4,4,7c3,11,1,23-5,35-6-13-7-27-2-39-1-1-1-1,0-2-17,1-34-5-48-17c13-5,26-6,37-3-1-13,3-28,13-42Z" fill="none" stroke="#4472c4" stroke-miterlimit="10"/><path d="M373,245c15,28,19,56,13,82-1,7-3,12-7,16c1,1,2,3,2,5c18,12,30,31,34,55-17-2-32-9-42-19-7-7-11-15-12-23c1-6,4-11,8-15-10,0-19-3-27-11c2-7,5-13,10-19-2-23,5-48,21-71Z" fill="none" stroke="#ed7d31" stroke-miterlimit="10"/><path d="M373,268c11,27,10,53,0,77c3-3,7-4,11-4-3,3-6,4-10,4c2,2,3,3,3,6c3,9,2,20-4,30-5-12-5-24-1-35c0,0,0,0,0-1-8,1-15-2-22-8-6-9-9-20-7-34c6-13,16-25,30-35Z" fill="none" stroke="#a5a5a5" stroke-miterlimit="10"/><path d="M373,311c5,10,6,20,4,29c1,0,2,1,4,3-3,1-5,2-8,2c1,0,1,1,1,1c3,8,3,17-1,26-4-7-6-15-4-21c0-3,1-4,3-6-14,2-27-3-38-13-1-10,0-22,5-33c14,1,25,5,34,12Z" fill="none" stroke="#ffc000" stroke-miterlimit="10"/><path d="M373,298c9,7,14,15,18,23c0,8-2,15-6,20-3,3-6,5-10,5c3,2,4,4,4,8c1,7-1,14-6,21-5-5-9-10-10-16c1-6,5-11,9-14-11,1-22-2-32-11-9-13-14-31-12-51c18,1,33,6,45,15Z" fill="none" stroke="#5b9bd5" stroke-miterlimit="10"/><path d="M373,247c15,27,19,56,12,82c0,5-2,10-5,14c0,1-1,3-3,3c33,21,57,54,67,96-33-13-58-34-71-61-6-8-8-18-7-26c0-4,1-7,3-9-8,0-16-3-23-10-4-9-5-20-3-32c3-20,13-40,30-57Z" fill="none" stroke="#70ad47" stroke-miterlimit="10"/><path d="M373,200c32-6,67-5,102,4-7,55-31,100-68,130c17,6,32,18,43,36c10,25,12,55,5,88-33-3-61-14-82-31-16-5-31-13-43-23-10-11-18-24-23-38c8-15,19-26,31-32c4-7,10-12,16-16-10-37-3-78,19-118Z" fill="none" stroke="#7c9cd6" stroke-miterlimit="10"/><path d="M373,334c3-2,7-4,12-5c0,5-1,10-3,13-2,2-3,4-5,4c14,10,25,25,29,44-16-7-27-19-33-33-3,1-6,2-10,2c0-5,2-10,6-13-13,1-25-4-35-14c4-7,9-14,16-19c11,5,19,12,23,21Z" fill="none" stroke="#f2a46f" stroke-miterlimit="10"/><path d="M373,205c20,48,20,96,1,138c1,0,3,0,4,0-1,2-3,2-4,2c0,0,0,1,0,1c4,11,4,23-1,35-7-3-13-8-17-13c3-10,8-18,16-23-13,2-27-3-38-13c8-5,16-7,24-7-11-38-6-79,15-120Z" fill="none" stroke="#4c2183" stroke-miterlimit="10"/><path d="M373,322c4,5,5,11,5,16c0,3-1,5-3,6c0,1-1,1-1,1c4,3,8,8,9,14-3,2-6,3-10,4-3-3-5-7-5-11c0-3,2-5,4-7-9,1-17-2-25-8-12-14-20-33-20-56c22,9,37,23,46,41Z" fill="none" stroke="#ffd34d" stroke-miterlimit="10"/><path d="M373,173c26,50,31,102,17,148c0,9-4,16-9,22c1,1,3,3,4,6c16,12,27,31,31,55-4,28-19,55-43,80-22-33-31-68-27-101-1-12,1-23,6-31-3-5-4-10-5-15-8-12-13-27-12-44-3-40,10-81,38-120Z" fill="none" stroke="#8cb9e2" stroke-miterlimit="10"/><path d="M373,205c20,45,22,90,7,131c1,2,2,4,2,6-1,2-3,4-5,4c14,9,24,24,27,42-13-3-24-10-31-19-5-1-9-4-12-7-2-4-2-9-2-12-6-3-11-8-15-15-9-12-14-29-13-47c4-29,18-58,42-83Z" fill="none" stroke="#9bc67e" stroke-miterlimit="10"/><path d="M373,335c2-1,6-2,9-2c1,3,1,6,0,9-2,2-4,3-7,4c0,0,1,1,0,2c3,8,2,16-2,24-4-6-6-13-5-20c1-3,2-5,5-7-8,1-16-2-23-7-17-16-28-39-31-67c28,16,46,38,54,64Z" fill="none" stroke="#b4c7e7" stroke-miterlimit="10"/><path d="M373,261c15,14,24,29,28,45-2,16-9,28-20,36c1,2,2,4,2,6-2,2-3,3-5,4c4,14,3,29-5,44-9-10-13-22-13-33c2-8,6-14,11-17-8,0-17-3-24-10-3-8-4-18-1-29c3-16,12-32,27-46Z" fill="none" stroke="#f8cbad" stroke-miterlimit="10"/><path d="M373,174c31,27,50,58,59,90c0,28-7,51-20,68-7,10-15,16-24,18c24,18,40,45,46,79-26-6-47-19-61-36-10,1-21-1-31-5-4-12-4-23-1-32c0-8,2-14,5-20-6-10-8-23-7-37-5-41,6-84,34-125Z" fill="none" stroke="#c81515" stroke-miterlimit="10"/><path d="M373,284c10,12,16,26,16,39-1,9-5,16-11,20c1,1,1,3,1,4c3,3,5,8,5,14-3,2-7,4-11,5-5,2-10,2-16,1c2-9,7-17,14-21-12,1-25-4-35-13c0-10,2-20,7-30c8-8,18-15,30-19Z" fill="none" stroke="#ffe699" stroke-miterlimit="10"/><path d="M373,293c8,15,10,30,6,44-1,3-2,6-4,7c2,1,5,2,7,4-1,2-2,3-4,4c0,3-2,6-5,8-3,1-7,1-11,0c1-6,3-10,7-14-9,0-18-3-25-11-1-8,0-16,3-25c7-8,16-13,26-17Z" fill="none" stroke="#02101c" stroke-miterlimit="10"/><path d="M373,317c4,7,6,15,4,22c3,0,6,0,8,2-3,3-8,4-12,4c2,1,3,2,3,4c2,7,1,15-3,23-4-9-4-18-1-26c0,0,0,0,0-1-8,1-16-2-22-8-13-13-20-31-21-53c20,7,35,18,44,33Z" fill="none" stroke="#c6deb5" stroke-miterlimit="10"/><path d="M373,118c35,62,45,126,31,185-3,17-11,30-23,39c2,2,4,4,4,7c7,7,12,17,12,29-10-2-19-8-24-15-4,1-9,2-14,1-4-3-7-7-9-12-5-4-9-10-11-18c7-5,14-7,20-8-23-64-19-137,14-208Z" transform="translate(.193099 0)" fill="none" stroke="#74bd9d" stroke-miterlimit="10"/><path d="M373,344c1-3,3-6,6-7c2,1,4,2,5,4-3,3-6,5-9,5c0,0-1,0-1,1c9,20,9,44-1,68-11-21-13-41-7-60c1-4,3-8,6-10-7,1-15-2-22-7-11-12-17-29-18-49c22,14,36,33,41,55Z" fill="none" stroke="#ad4d07" stroke-miterlimit="10"/><path d="M373,280c14,1,27,5,39,11-2,20-10,37-22,49-2,3-4,6-7,8c3,5,5,10,4,17-5,0-10,0-14-2-5,7-13,12-23,14c2-13,8-23,16-30-5-1-10-4-14-9-14-13-23-32-24-55c15-5,31-6,45-3Z" fill="none" stroke="#bb3f3f" stroke-miterlimit="10"/><path d="M373,231c17,36,19,72,7,104c1,3,0,6-1,8c1,1,1,3,0,4c16,11,27,27,31,49-19-10-31-25-37-42-3,3-6,5-11,6-1-5,0-9,2-12-8-1-16-6-23-13c4-6,8-11,14-15-6-29,0-60,18-89Z" fill="none" stroke="#ebb91a" stroke-miterlimit="10"/><path d="M373,304c6,12,8,24,4,35c2,0,4,2,5,3-3,2-6,3-9,3c14,8,23,21,28,38-11-1-21-5-28-11-4-9-4-18-1-26c0,0-1,0-1,0-9,0-18-3-26-10-6-11-8-23-6-38c13-1,24,2,34,6Z" fill="none" stroke="#541396" stroke-miterlimit="10"/><path d="M373,301c7,11,10,22,8,33c1,2,2,5,2,8c0,2-1,4-2,6c2,3,3,7,2,11-5-2-8-6-10-11-2,5-5,9-11,12c1-6,4-11,9-14-9,0-17-3-25-10-9-12-14-28-13-46c16,0,29,4,40,11Z" fill="none" stroke="#f1f7ed" stroke-miterlimit="10"/><path d="M373,300c8,8,13,16,15,24c0,7-2,13-6,18-1,2-3,4-5,4c4,3,6,8,7,14-5-2-9-5-11-9-2,2-5,4-8,5c1-4,3-8,6-10-9,0-18-3-25-10-9-12-14-28-13-46c15,0,29,4,40,10Z" fill="none" stroke="#251b0b" stroke-miterlimit="10"/><path d="M373,299c7,11,10,23,9,34c1,3,2,6,1,9-1,2-2,4-4,5c1,2,1,4,1,7-2,1-5,2-7,3-3,2-6,3-10,2c0-5,3-10,7-13-7,0-14-3-20-9-8-10-12-24-12-40c13-2,25-1,35,2Z" fill="none" stroke="#031928" stroke-miterlimit="10"/><path d="M373,307c6,10,8,20,6,30c2,1,4,2,5,4-3,3-6,5-10,4c1,1,1,2,1,3c1,4,0,8-2,12-2-3-4-7-3-10c0-2,1-4,3-5-10,1-20-2-28-9-16-16-25-39-26-65c24,7,42,19,54,36Z" fill="none" stroke="#111" stroke-miterlimit="10"/><path d="M373,283c10,15,14,30,13,45c1,4,1,9,0,13-3,3-7,5-11,5c15,9,25,23,29,42-14-4-24-12-31-22-5,0-9,0-14-2c2-8,6-14,12-18-12,0-23-4-34-13c1-8,4-17,9-25c6-10,15-18,27-25Z" fill="none" stroke="#ff0d32" stroke-miterlimit="10"/><path d="M373,341c1,1,1,2,1,3c2-2,6-3,9-2-3,2-6,3-10,3c1,0,1,1,1,2c0-1-1-1-1-2c0,2-1,3-3,4c0-2,1-3,3-4-6,1-13-1-18-6-17-14-28-35-31-61c26,16,43,38,49,63Z" fill="none" stroke="#211307" stroke-miterlimit="10"/><path d="M373,317c7-4,15-6,25-6c0,12-3,21-9,29-3,4-6,6-9,7c6,6,10,14,11,23-5,3-12,5-18,5-7,5-17,8-27,8c3-16,12-29,24-37-9,0-17-3-25-10-9-13-15-29-14-49c19,6,33,16,42,30Z" fill="none" stroke="#1d0f24" stroke-miterlimit="10"/><path d="M373,217c19,40,21,81,8,118c2,1,5,2,7,5-2,4-6,6-10,7c6,4,10,11,11,20-7-2-12-5-16-10-3,1-6,1-9,0c0-4,2-8,4-10-8-1-16-4-22-11-12-14-19-32-19-55c7-23,23-45,46-64Z" fill="none" stroke="#5d471d" stroke-miterlimit="10"/><path d="M373,302c6,13,8,26,4,38c2,0,3,1,4,2-2,2-4,3-7,3c0,1-1,0-1,0c3,7,3,16,0,24-4-7-4-14-2-21-1-1,0-2,0-2-9,0-19-3-27-10-4-10-6-22-3-36c11-2,22-1,32,2Z" fill="none" stroke="#094166" stroke-miterlimit="10"/></g><g transform="translate(.000001 0)"><path d="M365.8125,91.5625h-3.70312v3.015625h4.29687v.921875h-5.42187v-8.53125h5.375v.921875h-4.25v2.75h3.70312v.921875Zm3.125-2.40625v7.078125q0,1.828125-1.65625,1.828125-.35937,0-.65625-.109375v-.859375q.1875.046875.48438.046875.35937,0,.54687-.203125.20313-.1875.20313-.6875v-7.09375h1.07812ZM367.75,87.484375q0-.265625.15625-.453125t.46875-.1875.46875.1875q.17187.1875.17187.453125q0,.25-.17187.4375-.15625.171875-.46875.171875t-.46875-.171875q-.15625-.1875-.15625-.4375ZM373.45312,95.625q-1.29687,0-2.10937-.84375-.79687-.859375-.79687-2.28125v-.1875q0-.953125.35937-1.6875.35937-.75,1-1.15625.65625-.421875,1.40625-.421875q1.23438,0,1.92188.8125t.6875,2.328125v.453125h-4.29688q.03125.9375.54688,1.515625.53124.578125,1.34374.578125.5625,0,.95313-.234375.40625-.234375.71875-.625l.65625.515625Q375.04688,95.625,373.45312,95.625Zm-.14062-5.6875q0,0-1.10938.484375-.4375.46875-.53124,1.328125h3.17187v-.078125q-.04687-.828125-.45313-1.28125Q374,89.9375,373.3125,89.9375ZM383.26562,95.5h-1.07812v-7.21875L380,89.078125v-.984375l3.10938-1.171875h.15624v8.578125Z" fill="#fff" stroke-width="100" stroke-linecap="square" stroke-miterlimit="10"/><path d="M514.8125,139.5625h-3.70312v3.01562h4.29687v.92188h-5.42187v-8.53125h5.37502v.92187h-4.25002v2.75h3.70312v.92188Zm3.125-2.40625v7.07813q0,1.82812-1.65625,1.82812-.35935,0-.65625-.10938v-.85937q.1875.04687.4844.04687.35935,0,.54685-.20312.20315-.1875.20315-.6875v-7.09375h1.0781Zm-1.1875-1.67187q0-.26563.15625-.45313t.46875-.1875.46875.1875q.17185.1875.17185.45313q0,.25-.17185.4375-.15625.17187-.46875.17187t-.46875-.17187q-.15625-.1875-.15625-.4375Zm5.7031,8.14062q-1.29685,0-2.10935-.84375-.79685-.85937-.79685-2.28125v-.1875q0-.95312.35935-1.6875.35935-.75,1-1.15625.65625-.42187,1.40625-.42187q1.2344,0,1.9219.8125t.6875,2.32812v.45312h-4.2969q.03125.9375.5469,1.51563.5312.57813,1.3437.57813.5625,0,.95315-.23438.40625-.23438.71875-.625l.65625.51562q-.79685,1.23438-2.39065,1.23438Zm-.1406-5.6875q-.65625,0-1.1094.48438-.4375.46874-.5312,1.32812h3.17185v-.07812q-.04685-.82813-.45315-1.28126-.3906-.45312-1.0781-.45312ZM534.2969,143.5h-5.5938v-.78125l2.95315-3.28125q.65625-.75.90625-1.20312.25-.46876.25-.96876q0-.67187-.40625-1.09374-.39065-.4375-1.07815-.4375-.79685,0-1.25.46874-.4531.45313-.4531,1.28126h-1.0781q0-1.1875.75-1.90626.7656-.73437,2.0312-.73437q1.20315,0,1.89065.625t.6875,1.67187q0,1.25-1.60935,3l-2.2813,2.46876h4.2813v.89062Z" fill="#fff" stroke-width="100" stroke-linecap="square" stroke-miterlimit="10"/><path d="M607.8125,266.5625h-3.7031v3.01562h4.29685v.92188h-5.42185v-8.53125h5.375v.92187h-4.25v2.75h3.7031v.92188Zm3.125-2.40625v7.07813q0,1.82812-1.65625,1.82812-.35935,0-.65625-.10938v-.85937q.1875.04687.4844.04687.35935,0,.54685-.20312.20315-.1875.20315-.6875v-7.09375h1.0781Zm-1.1875-1.67187q0-.26563.15625-.45313t.46875-.1875.46875.1875q.17185.1875.17185.45313q0,.25-.17185.4375-.15625.17187-.46875.17187t-.46875-.17187q-.15625-.1875-.15625-.4375Zm5.7031,8.14062q-1.29685,0-2.10935-.84375-.79685-.85937-.79685-2.28125v-.1875q0-.95312.35935-1.6875.35935-.75,1-1.15625.65625-.42187,1.40625-.42187q1.2344,0,1.9219.8125t.6875,2.32812v.45312h-4.2969q.03125.9375.5469,1.51563.5312.57813,1.3437.57813.5625,0,.95315-.23438.40625-.23438.71875-.625l.65625.51562q-.79685,1.23438-2.39065,1.23438Zm-.1406-5.6875q-.65625,0-1.1094.48438-.4375.46874-.5312,1.32812h3.17185v-.07812q-.04685-.82813-.45315-1.28126-.3906-.45312-1.0781-.45312Zm7.96875.76562h.8125q.78125-.01562,1.21875-.40624t.4375-1.0625q0-1.5-1.5-1.5-.7031,0-1.125.40624-.40625.40626-.40625,1.0625h-1.09375q0-1.01562.7344-1.6875.75-.67187,1.8906-.67187q1.2031,0,1.8906.64063t.6875,1.78124q0,.5625-.35935,1.07813t-.98435.78125q.7031.21875,1.0781.73438.3906.51562.3906,1.26562q0,1.14062-.75,1.82812-.75.67188-1.9531.67188-1.1875,0-1.9531-.65625-.75-.65625-.75-1.71875h1.0937q0,.67188.4375,1.07812t1.1875.40626q.7813,0,1.1875-.40626.4219-.42187.4219-1.1875q0-.73437-.4531-1.125-.45315-.40624-1.32815-.42187h-.8125v-.89063Z" fill="#fff" stroke-width="100" stroke-linecap="square" stroke-miterlimit="10"/><path d="M607.8125,424.5625h-3.7031v3.01562h4.29685v.92188h-5.42185v-8.53125h5.375v.92187h-4.25v2.75h3.7031v.92188Zm3.125-2.40625v7.07813q0,1.82812-1.65625,1.82812-.35935,0-.65625-.10938v-.85937q.1875.04687.4844.04687.35935,0,.54685-.20312.20315-.1875.20315-.6875v-7.09375h1.0781Zm-1.1875-1.67187q0-.26563.15625-.45313t.46875-.1875.46875.1875q.17185.1875.17185.45313q0,.25-.17185.4375-.15625.17187-.46875.17187t-.46875-.17187q-.15625-.1875-.15625-.4375Zm5.7031,8.14062q-1.29685,0-2.10935-.84375-.79685-.85937-.79685-2.28125v-.1875q0-.95312.35935-1.6875.35935-.75,1-1.15625.65625-.42187,1.40625-.42187q1.2344,0,1.9219.8125t.6875,2.32812v.45312h-4.2969q.03125.9375.5469,1.51563.5312.57813,1.3437.57813.5625,0,.95315-.23438.40625-.23438.71875-.625l.65625.51562q-.79685,1.23438-2.39065,1.23438Zm-.1406-5.6875q-.65625,0-1.1094.48438-.4375.46874-.5312,1.32812h3.17185v-.07812q-.04685-.82813-.45315-1.28126-.3906-.45312-1.0781-.45312Zm10.96875,2.70312h1.1875v.875h-1.1875v1.98438h-1.07815v-1.98438h-3.8906v-.64062l3.8125-5.90625h1.15625v5.67187Zm-3.73435,0h2.6562v-4.1875l-.1406.23438-2.5156,3.95312Z" transform="translate(.000001 0)" fill="#fff" stroke-width="100" stroke-linecap="square" stroke-miterlimit="10"/><path d="M514.8125,551.5625h-3.70312v3.0156h4.29687v.9219h-5.42187v-8.53125h5.37502v.92185h-4.25002v2.75h3.70312v.9219Zm3.125-2.40625v7.07815q0,1.8281-1.65625,1.8281-.35935,0-.65625-.1094v-.85935q.1875.04685.4844.04685.35935,0,.54685-.2031.20315-.1875.20315-.6875v-7.09375h1.0781ZM516.75,547.4844q0-.26565.15625-.45315t.46875-.1875.46875.1875q.17185.1875.17185.45315q0,.25-.17185.4375-.15625.17185-.46875.17185t-.46875-.17185q-.15625-.1875-.15625-.4375Zm5.7031,8.1406q-1.29685,0-2.10935-.84375-.79685-.85935-.79685-2.28125v-.1875q0-.9531.35935-1.6875.35935-.75,1-1.15625.65625-.42185,1.40625-.42185q1.2344,0,1.9219.8125t.6875,2.3281v.4531h-4.2969q.03125.9375.5469,1.51565.5312.57815,1.3437.57815.5625,0,.95315-.2344.40625-.2344.71875-.625l.65625.5156q-.79685,1.2344-2.39065,1.2344Zm-.1406-5.6875q-.65625,0-1.1094.4844-.4375.4687-.5312,1.3281h3.17185v-.0781q-.04685-.82815-.45315-1.2813-.3906-.4531-1.0781-.4531Zm6.8906,1.28125c-.735966-1.049384.4375-4.25.4375-4.25h4.375v1h-3.4531l-.2656,2.32815q.6406-.375,1.4375-.375q1.1562,0,1.8437.7812.6875.76565.6875,2.07815t-.7187,2.07815q-.70315.7656-1.9844.7656-1.125,0-1.84375-.625-.71875-.6406-.8125-1.75h1.01565q.10935.7344.5312,1.1094t1.1094.375q.75,0,1.1875-.51565t.4375-1.42185q0-.8594-.46875-1.375t-1.25-.51565q-.70315,0-1.10935.29685l-.2813.2344c0,0-.719635.002778-.875-.21875Z" fill="#fff" stroke-width="100" stroke-linecap="square" stroke-miterlimit="10"/><path d="M365.8125,599.5625h-3.70312v3.0156h4.29687v.9219h-5.42187v-8.53125h5.375v.92185h-4.25v2.75h3.70312v.9219Zm3.125-2.40625v7.07815q0,1.8281-1.65625,1.8281-.35937,0-.65625-.1094v-.85935q.1875.04685.48438.04685.35937,0,.54687-.2031.20313-.1875.20313-.6875v-7.09375h1.07812ZM367.75,595.4844q0-.26565.15625-.45315t.46875-.1875.46875.1875q.17187.1875.17187.45315q0,.25-.17187.4375-.15625.17185-.46875.17185t-.46875-.17185q-.15625-.1875-.15625-.4375Zm5.70312,8.1406q-1.29687,0-2.10937-.84375-.79687-.85935-.79687-2.28125v-.1875q0-.9531.35937-1.6875.35937-.75,1-1.15625.65625-.42185,1.40625-.42185q1.23438,0,1.92188.8125t.6875,2.3281v.4531h-4.29688q.03125.9375.54688,1.51565.53124.57815,1.34374.57815.5625,0,.95313-.2344.40625-.2344.71875-.625l.65625.5156q-.79687,1.2344-2.39063,1.2344Zm-.14062-5.6875q-.65625,0-1.10938.4844-.4375.4687-.53124,1.3281h3.17187v-.0781q-.04687-.82815-.45313-1.2813-.39062-.4531-1.07812-.4531Zm10.65625-2.96875v.90625h-.20313q-1.26562.03125-2.01562.7656-.75.7188-.875,2.0313.6875-.76565,1.84375-.76565q1.10937,0,1.78125.78125t.67188,2.03125q0,1.3125-.71876,2.10935t-1.9375.7969-1.98437-.9375q-.75-.9531-.75-2.4375v-.40625q0-2.35935,1-3.60935t2.98437-1.26565h.20313Zm-1.42187,3.84375q0,0-1.03126.3281-.46874.32815-.65624.8438v.3906q0,1.0625.46874,1.7031.48438.64065,1.1875.64065.73438,0,1.15626-.53125.42187-.5469.42187-1.4219t-.42187-1.4062q-.42188-.5469-1.125-.5469Z" fill="#fff" stroke-width="100" stroke-linecap="square" stroke-miterlimit="10"/><path d="M216.8125,551.5625h-3.70312v3.0156h4.29687v.9219h-5.42187v-8.53125h5.375v.92185h-4.25v2.75h3.70312v.9219Zm3.125-2.40625v7.07815q0,1.8281-1.65625,1.8281-.35937,0-.65625-.1094v-.85935q.1875.04685.48438.04685.35937,0,.54687-.2031.20313-.1875.20313-.6875v-7.09375h1.07812ZM218.75,547.4844q0-.26565.15625-.45315t.46875-.1875.46875.1875q.17187.1875.17187.45315q0,.25-.17187.4375-.15625.17185-.46875.17185t-.46875-.17185q-.15625-.1875-.15625-.4375Zm5.70312,8.1406q-1.29687,0-2.10937-.84375-.79687-.85935-.79687-2.28125v-.1875q0-.9531.35937-1.6875.35937-.75,1-1.15625.65625-.42185,1.40625-.42185q1.23438,0,1.92188.8125t.6875,2.3281v.4531h-4.29688q.03125.9375.54688,1.51565.53124.57815,1.34374.57815.5625,0,.95313-.2344.40625-.2344.71875-.625l.65625.5156q-.79687,1.2344-2.39063,1.2344Zm-.14062-5.6875q-.65625,0-1.10938.4844-.4375.4687-.53124,1.3281h3.17187v-.0781q-.04687-.82815-.45313-1.2813-.39062-.4531-1.07812-.4531Zm11.90625-2.3594L232.6875,555.5h-1.14062l3.51562-7.6406h-4.60938v-.89065h5.76563v.60935Z" transform="translate(.000001 0)" fill="#fff" stroke-width="100" stroke-linecap="square" stroke-miterlimit="10"/><path d="M123.8125,424.5625h-3.703125v3.01562h4.296875v.92188h-5.421875v-8.53125h5.375v.92187h-4.25v2.75h3.703125v.92188Zm3.125-2.40625v7.07813q0,1.82812-1.65625,1.82812-.359375,0-.65625-.10938v-.85937q.1875.04687.484375.04687.359375,0,.546875-.20312.203125-.1875.203125-.6875v-7.09375h1.078125Zm-1.1875-1.67187q0-.26563.15625-.45313t.46875-.1875.46875.1875q.171875.1875.171875.45313q0,.25-.171875.4375-.15625.17187-.46875.17187t-.46875-.17187q-.15625-.1875-.15625-.4375Zm5.70312,8.14062q-1.29687,0-2.10937-.84375-.79687-.85937-.79687-2.28125v-.1875q0-.95312.35937-1.6875.35937-.75,1-1.15625.65625-.42187,1.40625-.42187q1.23438,0,1.92188.8125t.6875,2.32812v.45312h-4.29688q.03125.9375.54688,1.51563.53124.57813,1.34374.57813.5625,0,.95313-.23438.40625-.23438.71875-.625l.65625.51562q-.79687,1.23438-2.39063,1.23438Zm-.14062-5.6875q-.65625,0-1.10938.48438-.4375.46874-.53124,1.32812h3.17187v-.07812q-.04687-.82813-.45313-1.28126-.39062-.45312-1.07812-.45312Zm11.57812-.75q0,.64062-.34374,1.14062t-.90626.78126q.65626.28124,1.04688.84374.39062.54688.39062,1.25q0,1.09376-.75,1.76563-.73437.65625-1.95312.65625-1.23438,0-1.98438-.65625-.73437-.67187-.73437-1.76563q0-.70312.375-1.25.375-.5625,1.04687-.84374-.5625-.28126-.89062-.78126t-.32812-1.14062q0-1.07812.6875-1.70312.6875-.64063,1.82812-.64063q1.125,0,1.8125.64063.70312.625.70312,1.70312ZM142,426.17188q0-.71876-.45312-1.15626-.45313-.45312-1.1875-.45312t-1.1875.45312q-.4375.4375-.4375,1.17188q0,.71875.4375,1.14062.4375.40626,1.20312.40626.75,0,1.1875-.42188t.4375-1.14062Zm-1.625-5.4375q-.64062,0-1.04688.40624-.39062.39063-.39062,1.07813q0,.64063.39062,1.04687t1.03126.40626q.65624,0,1.04687-.40626t.39063-1.04687q0-.65625-.40626-1.0625-.40624-.42187-1.01562-.42187Z" transform="translate(.000001 0)" fill="#fff" stroke-width="100" stroke-linecap="square" stroke-miterlimit="10"/><path d="M123.8125,266.5625h-3.703125v3.01562h4.296875v.92188h-5.421875v-8.53125h5.375v.92187h-4.25v2.75h3.703125v.92188Zm3.125-2.40625v7.07813q0,1.82812-1.65625,1.82812-.359375,0-.65625-.10938v-.85937q.1875.04687.484375.04687.359375,0,.546875-.20312.203125-.1875.203125-.6875v-7.09375h1.078125Zm-1.1875-1.67187q0-.26563.15625-.45313t.46875-.1875.46875.1875q.171875.1875.171875.45313q0,.25-.171875.4375-.15625.17187-.46875.17187t-.46875-.17187q-.15625-.1875-.15625-.4375Zm5.70312,8.14062q-1.29687,0-2.10937-.84375-.79687-.85937-.79687-2.28125v-.1875q0-.95312.35937-1.6875.35937-.75,1-1.15625.65625-.42187,1.40625-.42187q1.23438,0,1.92188.8125t.6875,2.32812v.45312h-4.29688q.03125.9375.54688,1.51563.53124.57813,1.34374.57813.5625,0,.95313-.23438.40625-.23438.71875-.625l.65625.51562q-.79687,1.23438-2.39063,1.23438Zm-.14062-5.6875q-.65625,0-1.10938.48438-.4375.46874-.53124,1.32812h3.17187v-.07812q-.04687-.82813-.45313-1.28126-.39062-.45312-1.07812-.45312Zm10.54688,1.8125q-.32813.40625-.8125.65625-.46876.23437-1.03126.23437-.73437,0-1.28124-.35937t-.84376-1.01563q-.29687-.67187-.29687-1.46874q0-.84376.3125-1.53126.32813-.6875.92187-1.04687.60938-.375,1.40626-.375q1.26562,0,1.98437.95313.73437.95312.73437,2.57812v.3125q0,2.5-.98437,3.64062t-2.96875,1.17188h-.21875v-.90625h.23437q1.34376-.03125,2.0625-.70313t.78126-2.14062Zm-1.67188,0q.54688,0,1-.32812.46875-.34376.6875-.82813v-.4375q0-1.0625-.46875-1.73437t-1.17187-.67188q-.71876,0-1.15626.54688-.42187.54687-.42187,1.45312q0,.875.40625,1.4375.42188.5625,1.125.5625Z" transform="translate(.000001 0)" filter="url(#eyRGjfTC2mS66-filter)" fill="#fff" stroke-width="100" stroke-linecap="square" stroke-miterlimit="100"/><path d="M213.3125,139.5625h-3.70312v3.01562h4.29687v.92188h-5.42187v-8.53125h5.375v.92187h-4.25v2.75h3.70312v.92188Zm3.125-2.40625v7.07813q0,1.82812-1.65625,1.82812-.35937,0-.65625-.10938v-.85937q.1875.04687.48438.04687.35937,0,.54687-.20312.20313-.1875.20313-.6875v-7.09375h1.07812Zm-1.1875-1.67187q0-.26563.15625-.45313t.46875-.1875.46875.1875q.17187.1875.17187.45313q0,.25-.17187.4375-.15625.17187-.46875.17187t-.46875-.17187q-.15625-.1875-.15625-.4375Zm5.70312,8.14062q-1.29687,0-2.10937-.84375-.79687-.85937-.79687-2.28125v-.1875q0-.95312.35937-1.6875.35937-.75,1-1.15625.65625-.42187,1.40625-.42187q1.23438,0,1.92188.8125t.6875,2.32812v.45312h-4.29688q.03125.9375.54688,1.51563.53124.57813,1.34374.57813.5625,0,.95313-.23438.40625-.23438.71875-.625l.65625.51562q-.79687,1.23438-2.39063,1.23438Zm-.14062-5.6875q-.65625,0-1.10938.48438-.4375.46874-.53124,1.32812h3.17187v-.07812q-.04687-.82813-.45313-1.28126-.39062-.45312-1.07812-.45312Zm9.95312,5.5625h-1.07812v-7.21875l-2.1875.79687v-.98437l3.10938-1.17187h.15624v8.57812Zm8.79688-3.64062q0,1.90624-.65625,2.84374-.64063.92188-2.03125.92188-1.35938,0-2.01562-.90625t-.6875-2.71875v-1.4375q0-1.89062.64062-2.79688.65625-.92187,2.04688-.92187q1.375,0,2.03124.89063.65626.875.67188,2.71874v1.40626Zm-1.09375-1.48438q0-1.375-.39063-2-.375-.64062-1.21874-.64062-.82813,0-1.21876.64062-.375.625-.375,1.92188v1.73437q0,1.375.39063,2.04687.40625.65626,1.21875.65626.79688,0,1.1875-.625t.40625-1.95313v-1.78125Z" transform="translate(.000001 0)" fill="#fff" stroke-width="100" stroke-linecap="square" stroke-miterlimit="10"/></g><script><![CDATA[!function(t,n){"object"==typeof exports&&"undefined"!=typeof module?module.exports=n():"function"==typeof define&&define.amd?define(n):((t="undefined"!=typeof globalThis?globalThis:t||self).__SVGATOR_PLAYER__=t.__SVGATOR_PLAYER__||{},t.__SVGATOR_PLAYER__["5c7f360c"]=n())}(this,(function(){"use strict";function t(t,n){var e=Object.keys(t);if(Object.getOwnPropertySymbols){var r=Object.getOwnPropertySymbols(t);n&&(r=r.filter((function(n){return Object.getOwnPropertyDescriptor(t,n).enumerable}))),e.push.apply(e,r)}return e}function n(n){for(var e=1;e<arguments.length;e++){var r=null!=arguments[e]?arguments[e]:{};e%2?t(Object(r),!0).forEach((function(t){o(n,t,r[t])})):Object.getOwnPropertyDescriptors?Object.defineProperties(n,Object.getOwnPropertyDescriptors(r)):t(Object(r)).forEach((function(t){Object.defineProperty(n,t,Object.getOwnPropertyDescriptor(r,t))}))}return n}function e(t){return(e="function"==typeof Symbol&&"symbol"==typeof Symbol.iterator?function(t){return typeof t}:function(t){return t&&"function"==typeof Symbol&&t.constructor===Symbol&&t!==Symbol.prototype?"symbol":typeof t})(t)}function r(t,n){if(!(t instanceof n))throw new TypeError("Cannot call a class as a function")}function i(t,n){for(var e=0;e<n.length;e++){var r=n[e];r.enumerable=r.enumerable||!1,r.configurable=!0,"value"in r&&(r.writable=!0),Object.defineProperty(t,r.key,r)}}function u(t,n,e){return n&&i(t.prototype,n),e&&i(t,e),t}function o(t,n,e){return n in t?Object.defineProperty(t,n,{value:e,enumerable:!0,configurable:!0,writable:!0}):t[n]=e,t}function a(t){return(a=Object.setPrototypeOf?Object.getPrototypeOf:function(t){return t.__proto__||Object.getPrototypeOf(t)})(t)}function l(t,n){return(l=Object.setPrototypeOf||function(t,n){return t.__proto__=n,t})(t,n)}function s(){if("undefined"==typeof Reflect||!Reflect.construct)return!1;if(Reflect.construct.sham)return!1;if("function"==typeof Proxy)return!0;try{return Boolean.prototype.valueOf.call(Reflect.construct(Boolean,[],(function(){}))),!0}catch(t){return!1}}function f(t,n,e){return(f=s()?Reflect.construct:function(t,n,e){var r=[null];r.push.apply(r,n);var i=new(Function.bind.apply(t,r));return e&&l(i,e.prototype),i}).apply(null,arguments)}function c(t,n){if(n&&("object"==typeof n||"function"==typeof n))return n;if(void 0!==n)throw new TypeError("Derived constructors may only return object or undefined");return function(t){if(void 0===t)throw new ReferenceError("this hasn't been initialised - super() hasn't been called");return t}(t)}function h(t,n,e){return(h="undefined"!=typeof Reflect&&Reflect.get?Reflect.get:function(t,n,e){var r=function(t,n){for(;!Object.prototype.hasOwnProperty.call(t,n)&&null!==(t=a(t)););return t}(t,n);if(r){var i=Object.getOwnPropertyDescriptor(r,n);return i.get?i.get.call(e):i.value}})(t,n,e||t)}function v(t){return function(t){if(Array.isArray(t))return y(t)}(t)||function(t){if("undefined"!=typeof Symbol&&null!=t[Symbol.iterator]||null!=t["@@iterator"])return Array.from(t)}(t)||function(t,n){if(!t)return;if("string"==typeof t)return y(t,n);var e=Object.prototype.toString.call(t).slice(8,-1);"Object"===e&&t.constructor&&(e=t.constructor.name);if("Map"===e||"Set"===e)return Array.from(t);if("Arguments"===e||/^(?:Ui|I)nt(?:8|16|32)(?:Clamped)?Array$/.test(e))return y(t,n)}(t)||function(){throw new TypeError("Invalid attempt to spread non-iterable instance.\nIn order to be iterable, non-array objects must have a [Symbol.iterator]() method.")}()}function y(t,n){(null==n||n>t.length)&&(n=t.length);for(var e=0,r=new Array(n);e<n;e++)r[e]=t[e];return r}Number.isInteger||(Number.isInteger=function(t){return"number"==typeof t&&isFinite(t)&&Math.floor(t)===t}),Number.EPSILON||(Number.EPSILON=2220446049250313e-31);var g=d(Math.pow(10,-6));function d(t){var n=arguments.length>1&&void 0!==arguments[1]?arguments[1]:6;if(Number.isInteger(t))return t;var e=Math.pow(10,n);return Math.round((+t+Number.EPSILON)*e)/e}function p(t,n){var e=arguments.length>2&&void 0!==arguments[2]?arguments[2]:g;return Math.abs(t-n)<e}var m=Math.PI/180;function b(t){return t}function w(t,n,e){var r=1-e;return 3*e*r*(t*r+n*e)+e*e*e}function x(){var t=arguments.length>0&&void 0!==arguments[0]?arguments[0]:0,n=arguments.length>1&&void 0!==arguments[1]?arguments[1]:0,e=arguments.length>2&&void 0!==arguments[2]?arguments[2]:1,r=arguments.length>3&&void 0!==arguments[3]?arguments[3]:1;return t<0||t>1||e<0||e>1?null:p(t,n)&&p(e,r)?b:function(i){if(i<=0)return t>0?i*n/t:0===n&&e>0?i*r/e:0;if(i>=1)return e<1?1+(i-1)*(r-1)/(e-1):1===e&&t<1?1+(i-1)*(n-1)/(t-1):1;for(var u,o=0,a=1;o<a;){var l=w(t,e,u=(o+a)/2);if(p(i,l))break;l<i?o=u:a=u}return w(n,r,u)}}function A(){return 1}function k(t){return 1===t?1:0}function _(){var t=arguments.length>0&&void 0!==arguments[0]?arguments[0]:1,n=arguments.length>1&&void 0!==arguments[1]?arguments[1]:0;if(1===t){if(0===n)return k;if(1===n)return A}var e=1/t;return function(t){return t>=1?1:(t+=n*e)-t%e}}var S=Math.sin,O=Math.cos,j=Math.acos,M=Math.asin,P=Math.tan,E=Math.atan2,I=Math.PI/180,R=180/Math.PI,F=Math.sqrt,N=function(){function t(){var n=arguments.length>0&&void 0!==arguments[0]?arguments[0]:1,e=arguments.length>1&&void 0!==arguments[1]?arguments[1]:0,i=arguments.length>2&&void 0!==arguments[2]?arguments[2]:0,u=arguments.length>3&&void 0!==arguments[3]?arguments[3]:1,o=arguments.length>4&&void 0!==arguments[4]?arguments[4]:0,a=arguments.length>5&&void 0!==arguments[5]?arguments[5]:0;r(this,t),this.m=[n,e,i,u,o,a],this.i=null,this.w=null,this.s=null}return u(t,[{key:"determinant",get:function(){var t=this.m;return t[0]*t[3]-t[1]*t[2]}},{key:"isIdentity",get:function(){if(null===this.i){var t=this.m;this.i=1===t[0]&&0===t[1]&&0===t[2]&&1===t[3]&&0===t[4]&&0===t[5]}return this.i}},{key:"point",value:function(t,n){var e=this.m;return{x:e[0]*t+e[2]*n+e[4],y:e[1]*t+e[3]*n+e[5]}}},{key:"translateSelf",value:function(){var t=arguments.length>0&&void 0!==arguments[0]?arguments[0]:0,n=arguments.length>1&&void 0!==arguments[1]?arguments[1]:0;if(!t&&!n)return this;var e=this.m;return e[4]+=e[0]*t+e[2]*n,e[5]+=e[1]*t+e[3]*n,this.w=this.s=this.i=null,this}},{key:"rotateSelf",value:function(){var t=arguments.length>0&&void 0!==arguments[0]?arguments[0]:0;if(t%=360){var n=S(t*=I),e=O(t),r=this.m,i=r[0],u=r[1];r[0]=i*e+r[2]*n,r[1]=u*e+r[3]*n,r[2]=r[2]*e-i*n,r[3]=r[3]*e-u*n,this.w=this.s=this.i=null}return this}},{key:"scaleSelf",value:function(){var t=arguments.length>0&&void 0!==arguments[0]?arguments[0]:1,n=arguments.length>1&&void 0!==arguments[1]?arguments[1]:1;if(1!==t||1!==n){var e=this.m;e[0]*=t,e[1]*=t,e[2]*=n,e[3]*=n,this.w=this.s=this.i=null}return this}},{key:"skewSelf",value:function(t,n){if(n%=360,(t%=360)||n){var e=this.m,r=e[0],i=e[1],u=e[2],o=e[3];t&&(t=P(t*I),e[2]+=r*t,e[3]+=i*t),n&&(n=P(n*I),e[0]+=u*n,e[1]+=o*n),this.w=this.s=this.i=null}return this}},{key:"resetSelf",value:function(){var t=arguments.length>0&&void 0!==arguments[0]?arguments[0]:1,n=arguments.length>1&&void 0!==arguments[1]?arguments[1]:0,e=arguments.length>2&&void 0!==arguments[2]?arguments[2]:0,r=arguments.length>3&&void 0!==arguments[3]?arguments[3]:1,i=arguments.length>4&&void 0!==arguments[4]?arguments[4]:0,u=arguments.length>5&&void 0!==arguments[5]?arguments[5]:0,o=this.m;return o[0]=t,o[1]=n,o[2]=e,o[3]=r,o[4]=i,o[5]=u,this.w=this.s=this.i=null,this}},{key:"recomposeSelf",value:function(){var t=arguments.length>0&&void 0!==arguments[0]?arguments[0]:null,n=arguments.length>1&&void 0!==arguments[1]?arguments[1]:null,e=arguments.length>2&&void 0!==arguments[2]?arguments[2]:null,r=arguments.length>3&&void 0!==arguments[3]?arguments[3]:null,i=arguments.length>4&&void 0!==arguments[4]?arguments[4]:null;return this.isIdentity||this.resetSelf(),t&&(t.x||t.y)&&this.translateSelf(t.x,t.y),n&&this.rotateSelf(n),e&&(e.x&&this.skewSelf(e.x,0),e.y&&this.skewSelf(0,e.y)),!r||1===r.x&&1===r.y||this.scaleSelf(r.x,r.y),i&&(i.x||i.y)&&this.translateSelf(i.x,i.y),this}},{key:"decompose",value:function(){var t=arguments.length>0&&void 0!==arguments[0]?arguments[0]:0,n=arguments.length>1&&void 0!==arguments[1]?arguments[1]:0,e=this.m,r=e[0]*e[0]+e[1]*e[1],i=[[e[0],e[1]],[e[2],e[3]]],u=F(r);if(0===u)return{origin:{x:d(e[4]),y:d(e[5])},translate:{x:d(t),y:d(n)},scale:{x:0,y:0},skew:{x:0,y:0},rotate:0};i[0][0]/=u,i[0][1]/=u;var o=e[0]*e[3]-e[1]*e[2]<0;o&&(u=-u);var a=i[0][0]*i[1][0]+i[0][1]*i[1][1];i[1][0]-=i[0][0]*a,i[1][1]-=i[0][1]*a;var l=F(i[1][0]*i[1][0]+i[1][1]*i[1][1]);if(0===l)return{origin:{x:d(e[4]),y:d(e[5])},translate:{x:d(t),y:d(n)},scale:{x:d(u),y:0},skew:{x:0,y:0},rotate:0};i[1][0]/=l,i[1][1]/=l,a/=l;var s=0;return i[1][1]<0?(s=j(i[1][1])*R,i[0][1]<0&&(s=360-s)):s=M(i[0][1])*R,o&&(s=-s),a=E(a,F(i[0][0]*i[0][0]+i[0][1]*i[0][1]))*R,o&&(a=-a),{origin:{x:d(e[4]),y:d(e[5])},translate:{x:d(t),y:d(n)},scale:{x:d(u),y:d(l)},skew:{x:d(a),y:0},rotate:d(s)}}},{key:"clone",value:function(){var t=this.m;return new this.constructor(t[0],t[1],t[2],t[3],t[4],t[5])}},{key:"toString",value:function(){var t=arguments.length>0&&void 0!==arguments[0]?arguments[0]:" ";if(null===this.s){var n=this.m.map((function(t){return d(t)}));1===n[0]&&0===n[1]&&0===n[2]&&1===n[3]?this.s="translate("+n[4]+t+n[5]+")":this.s="matrix("+n.join(t)+")"}return this.s}}],[{key:"create",value:function(t){return t?Array.isArray(t)?f(this,v(t)):t instanceof this?t.clone():(new this).recomposeSelf(t.origin,t.rotate,t.skew,t.scale,t.translate):new this}}]),t}();function T(t,n,e){return t>=.5?e:n}function q(t,n,e){return 0===t||n===e?n:t*(e-n)+n}function B(t,n,e){var r=q(t,n,e);return r<=0?0:r}function L(t,n,e){var r=q(t,n,e);return r<=0?0:r>=1?1:r}function C(t,n,e){return 0===t?n:1===t?e:{x:q(t,n.x,e.x),y:q(t,n.y,e.y)}}function D(t,n,e){var r=function(t,n,e){return Math.round(q(t,n,e))}(t,n,e);return r<=0?0:r>=255?255:r}function z(t,n,e){return 0===t?n:1===t?e:{r:D(t,n.r,e.r),g:D(t,n.g,e.g),b:D(t,n.b,e.b),a:q(t,null==n.a?1:n.a,null==e.a?1:e.a)}}function V(t,n){for(var e=[],r=0;r<t;r++)e.push(n);return e}function G(t,n){if(--n<=0)return t;var e=(t=Object.assign([],t)).length;do{for(var r=0;r<e;r++)t.push(t[r])}while(--n>0);return t}var Y,$=function(){function t(n){r(this,t),this.list=n,this.length=n.length}return u(t,[{key:"setAttribute",value:function(t,n){for(var e=this.list,r=0;r<this.length;r++)e[r].setAttribute(t,n)}},{key:"removeAttribute",value:function(t){for(var n=this.list,e=0;e<this.length;e++)n[e].removeAttribute(t)}},{key:"style",value:function(t,n){for(var e=this.list,r=0;r<this.length;r++)e[r].style[t]=n}}]),t}(),U=/-./g,Q=function(t,n){return n.toUpperCase()};function H(t){return"function"==typeof t?t:T}function J(t){return t?"function"==typeof t?t:Array.isArray(t)?function(t){var n=arguments.length>1&&void 0!==arguments[1]?arguments[1]:b;if(!Array.isArray(t))return n;switch(t.length){case 1:return _(t[0])||n;case 2:return _(t[0],t[1])||n;case 4:return x(t[0],t[1],t[2],t[3])||n}return n}(t,null):function(t,n){var e=arguments.length>2&&void 0!==arguments[2]?arguments[2]:b;switch(t){case"linear":return b;case"steps":return _(n.steps||1,n.jump||0)||e;case"bezier":case"cubic-bezier":return x(n.x1||0,n.y1||0,n.x2||0,n.y2||0)||e}return e}(t.type,t.value,null):null}function Z(t,n,e){var r=arguments.length>3&&void 0!==arguments[3]&&arguments[3],i=n.length-1;if(t<=n[0].t)return r?[0,0,n[0].v]:n[0].v;if(t>=n[i].t)return r?[i,1,n[i].v]:n[i].v;var u,o=n[0],a=null;for(u=1;u<=i;u++){if(!(t>n[u].t)){a=n[u];break}o=n[u]}return null==a?r?[i,1,n[i].v]:n[i].v:o.t===a.t?r?[u,1,a.v]:a.v:(t=(t-o.t)/(a.t-o.t),o.e&&(t=o.e(t)),r?[u,t,e(t,o.v,a.v)]:e(t,o.v,a.v))}function K(t,n){var e=arguments.length>2&&void 0!==arguments[2]?arguments[2]:null;return t&&t.length?"function"!=typeof n?null:("function"!=typeof e&&(e=null),function(r){var i=Z(r,t,n);return null!=i&&e&&(i=e(i)),i}):null}function W(t,n){return t.t-n.t}function X(t,n,r,i,u){var o,a="@"===r[0],l="#"===r[0],s=Y[r],f=T;switch(a?(o=r.substr(1),r=o.replace(U,Q)):l&&(r=r.substr(1)),e(s)){case"function":if(f=s(i,u,Z,J,r,a,n,t),l)return f;break;case"string":f=K(i,H(s));break;case"object":if((f=K(i,H(s.i),s.f))&&"function"==typeof s.u)return s.u(n,f,r,a,t)}return f?function(t,n,e){if(arguments.length>3&&void 0!==arguments[3]&&arguments[3])return t instanceof $?function(r){return t.style(n,e(r))}:function(r){return t.style[n]=e(r)};if(Array.isArray(n)){var r=n.length;return function(i){var u=e(i);if(null==u)for(var o=0;o<r;o++)t[o].removeAttribute(n);else for(var a=0;a<r;a++)t[a].setAttribute(n,u)}}return function(r){var i=e(r);null==i?t.removeAttribute(n):t.setAttribute(n,i)}}(n,r,f,a):null}function tt(t,n,r,i){if(!i||"object"!==e(i))return null;var u=null,o=null;return Array.isArray(i)?o=function(t){if(!t||!t.length)return null;for(var n=0;n<t.length;n++)t[n].e&&(t[n].e=J(t[n].e));return t.sort(W)}(i):(o=i.keys,u=i.data||null),o?X(t,n,r,o,u):null}function nt(t,n,e){if(!e)return null;var r=[];for(var i in e)if(e.hasOwnProperty(i)){var u=tt(t,n,i,e[i]);u&&r.push(u)}return r.length?r:null}function et(t,n){if(!n.settings.duration||n.settings.duration<0)return null;var e,r,i,u,o,a=function(t,n){if(!n)return null;var e=[];if(Array.isArray(n))for(var r=n.length,i=0;i<r;i++){var u=n[i];if(2===u.length){var o=null;if("string"==typeof u[0])o=t.getElementById(u[0]);else if(Array.isArray(u[0])){o=[];for(var a=0;a<u[0].length;a++)if("string"==typeof u[0][a]){var l=t.getElementById(u[0][a]);l&&o.push(l)}o=o.length?1===o.length?o[0]:new $(o):null}if(o){var s=nt(t,o,u[1]);s&&(e=e.concat(s))}}}else for(var f in n)if(n.hasOwnProperty(f)){var c=t.getElementById(f);if(c){var h=nt(t,c,n[f]);h&&(e=e.concat(h))}}return e.length?e:null}(t,n.elements);return a?(e=a,r=n.settings,i=r.duration,u=e.length,o=null,function(t,n){var a=r.iterations||1/0,l=(r.alternate&&a%2==0)^r.direction>0?i:0,s=t%i,f=1+(t-s)/i;n*=r.direction,r.alternate&&f%2==0&&(n=-n);var c=!1;if(f>a)s=l,c=!0,-1===r.fill&&(s=r.direction>0?0:i);else if(n<0&&(s=i-s),s===o)return!1;o=s;for(var h=0;h<u;h++)e[h](s);return c}):null}function rt(t,n){if(Y=n,!t||!t.root||!Array.isArray(t.animations))return null;var e=function(t){for(var n=document.getElementsByTagName("svg"),e=0;e<n.length;e++)if(n[e].id===t.root&&!n[e].svgatorAnimation)return n[e].svgatorAnimation=!0,n[e];return null}(t);if(!e)return null;var r=t.animations.map((function(t){return et(e,t)})).filter((function(t){return!!t}));return r.length?{svg:e,animations:r,animationSettings:t.animationSettings,options:t.options||void 0}:null}function it(t){return+("0x"+(t.replace(/[^0-9a-fA-F]+/g,"")||27))}function ut(t,n,e){return!t||!e||n>t.length?t:t.substring(0,n)+ut(t.substring(n+1),e,e)}function ot(t){var n=arguments.length>1&&void 0!==arguments[1]?arguments[1]:27;return!t||t%n?t%n:ot(t/n,n)}function at(t,n,e){if(t&&t.length){var r=it(e),i=it(n),u=ot(r)+5,o=ut(t,ot(r,5),u);return o=o.replace(/\x7c$/g,"==").replace(/\x2f$/g,"="),o=function(t,n,e){var r=+("0x"+t.substring(0,4));t=t.substring(4);for(var i=n%r+e%27,u=[],o=0;o<t.length;o+=2)if("|"!==t[o]){var a=+("0x"+t[o]+t[o+1])-i;u.push(a)}else{var l=+("0x"+t.substring(o+1,o+1+4))-i;o+=3,u.push(l)}return String.fromCharCode.apply(String,u)}(o=(o=atob(o)).replace(/[\x41-\x5A]/g,""),i,r),o=JSON.parse(o)}}var lt=[{key:"alternate",def:!1},{key:"fill",def:1},{key:"iterations",def:0},{key:"direction",def:1},{key:"speed",def:1},{key:"fps",def:100}],st=function(){function t(n,e){var i=this,u=arguments.length>2&&void 0!==arguments[2]?arguments[2]:null;r(this,t),this._id=0,this._running=!1,this._rollingBack=!1,this._animations=n,this._settings=e,(!u||u<"2022-05-02")&&delete this._settings.speed,lt.forEach((function(t){i._settings[t.key]=i._settings[t.key]||t.def})),this.duration=e.duration,this.offset=e.offset||0,this.rollbackStartOffset=0}return u(t,[{key:"alternate",get:function(){return this._settings.alternate}},{key:"fill",get:function(){return this._settings.fill}},{key:"iterations",get:function(){return this._settings.iterations}},{key:"direction",get:function(){return this._settings.direction}},{key:"speed",get:function(){return this._settings.speed}},{key:"fps",get:function(){return this._settings.fps}},{key:"maxFiniteDuration",get:function(){return this.iterations>0?this.iterations*this.duration:this.duration}},{key:"_apply",value:function(t){for(var n=arguments.length>1&&void 0!==arguments[1]?arguments[1]:{},e=this._animations,r=e.length,i=0,u=0;u<r;u++)n[u]?i++:(n[u]=e[u](t,1),n[u]&&i++);return i}},{key:"_rollback",value:function(t){var n=this,e=1/0,r=null;this.rollbackStartOffset=t,this._rollingBack=!0,this._running=!0;this._id=window.requestAnimationFrame((function i(u){if(n._rollingBack){null==r&&(r=u);var o=Math.round(t-(u-r)*n.speed);if(o>n.duration&&e!==1/0){var a=!!n.alternate&&o/n.duration%2>1,l=o%n.duration;o=(l+=a?n.duration:0)||n.duration}var s=(n.fps?1e3/n.fps:0)*n.speed,f=Math.max(0,o);f<e-s&&(n.offset=f,e=f,n._apply(f));var c=n.iterations>0&&-1===n.fill&&o>=n.maxFiniteDuration;(o<=0||n.offset<o||c)&&n.stop(),n._id=window.requestAnimationFrame(i)}}))}},{key:"_start",value:function(){var t=this,n=arguments.length>0&&void 0!==arguments[0]?arguments[0]:0,e=-1/0,r=null,i={};this._running=!0;var u=function u(o){null==r&&(r=o);var a=Math.round((o-r)*t.speed+n),l=(t.fps?1e3/t.fps:0)*t.speed;if(a>e+l&&!t._rollingBack&&(t.offset=a,e=a,t._apply(a,i)===t._animations.length))return void t.pause(!0);t._id=window.requestAnimationFrame(u)};this._id=window.requestAnimationFrame(u)}},{key:"_pause",value:function(){this._id&&window.cancelAnimationFrame(this._id),this._running=!1}},{key:"play",value:function(){if(!this._running)return this._rollingBack?this._rollback(this.offset):this._start(this.offset)}},{key:"stop",value:function(){this._pause(),this.offset=0,this.rollbackStartOffset=0,this._rollingBack=!1,this._apply(0)}},{key:"reachedToEnd",value:function(){return this.iterations>0&&this.offset>=this.iterations*this.duration}},{key:"restart",value:function(){var t=arguments.length>0&&void 0!==arguments[0]&&arguments[0];this.stop(t),this.play(t)}},{key:"pause",value:function(){this._pause()}},{key:"reverse",value:function(){this.direction=-this.direction}}],[{key:"build",value:function(t,n){delete t.animationSettings,t.options=at(t.options,t.root,"5c7f360c"),t.animations.map((function(n){n.settings=at(n.s,t.root,"5c7f360c"),delete n.s,t.animationSettings||(t.animationSettings=n.settings)}));var e=t.version;if(!(t=rt(t,n)))return null;var r=t.options||{},i=new this(t.animations,t.animationSettings,e);return{el:t.svg,options:r,player:i}}},{key:"push",value:function(t){return this.build(t)}},{key:"init",value:function(){var t=this,n=window.__SVGATOR_PLAYER__&&window.__SVGATOR_PLAYER__["5c7f360c"];Array.isArray(n)&&n.splice(0).forEach((function(n){return t.build(n)}))}}]),t}();function ft(t){return d(t)+""}function ct(t){var n=arguments.length>1&&void 0!==arguments[1]?arguments[1]:" ";return t&&t.length?t.map(ft).join(n):""}function ht(t){if(!t)return"transparent";if(null==t.a||t.a>=1){var n=function(t){return 1===(t=parseInt(t).toString(16)).length?"0"+t:t},e=function(t){return t.charAt(0)===t.charAt(1)},r=n(t.r),i=n(t.g),u=n(t.b);return e(r)&&e(i)&&e(u)&&(r=r.charAt(0),i=i.charAt(0),u=u.charAt(0)),"#"+r+i+u}return"rgba("+t.r+","+t.g+","+t.b+","+t.a+")"}function vt(t){return t?"url(#"+t+")":"none"}!function(){for(var t=0,n=["ms","moz","webkit","o"],e=0;e<n.length&&!window.requestAnimationFrame;++e)window.requestAnimationFrame=window[n[e]+"RequestAnimationFrame"],window.cancelAnimationFrame=window[n[e]+"CancelAnimationFrame"]||window[n[e]+"CancelRequestAnimationFrame"];window.requestAnimationFrame||(window.requestAnimationFrame=function(n){var e=Date.now(),r=Math.max(0,16-(e-t)),i=window.setTimeout((function(){n(e+r)}),r);return t=e+r,i},window.cancelAnimationFrame=window.clearTimeout)}();var yt={f:null,i:function(t,n,e){return 0===t?n:1===t?e:{x:B(t,n.x,e.x),y:B(t,n.y,e.y)}},u:function(t,n){return function(e){var r=n(e);t.setAttribute("rx",ft(r.x)),t.setAttribute("ry",ft(r.y))}}},gt={f:null,i:function(t,n,e){return 0===t?n:1===t?e:{width:B(t,n.width,e.width),height:B(t,n.height,e.height)}},u:function(t,n){return function(e){var r=n(e);t.setAttribute("width",ft(r.width)),t.setAttribute("height",ft(r.height))}}};Object.freeze({M:2,L:2,Z:0,H:1,V:1,C:6,Q:4,T:2,S:4,A:7});var dt={},pt=null;function mt(t){var n=function(){if(pt)return pt;if("object"!==("undefined"==typeof document?"undefined":e(document))||!document.createElementNS)return{};var t=document.createElementNS("http://www.w3.org/2000/svg","svg");return t&&t.style?(t.style.position="absolute",t.style.opacity="0.01",t.style.zIndex="-9999",t.style.left="-9999px",t.style.width="1px",t.style.height="1px",pt={svg:t}):{}}().svg;if(!n)return function(t){return null};var r=document.createElementNS(n.namespaceURI,"path");r.setAttributeNS(null,"d",t),r.setAttributeNS(null,"fill","none"),r.setAttributeNS(null,"stroke","none"),n.appendChild(r);var i=r.getTotalLength();return function(t){var n=r.getPointAtLength(i*t);return{x:n.x,y:n.y}}}function bt(t){return dt[t]?dt[t]:dt[t]=mt(t)}function wt(t,n,e,r){if(!t||!r)return!1;var i=["M",t.x,t.y];if(n&&e&&(i.push("C"),i.push(n.x),i.push(n.y),i.push(e.x),i.push(e.y)),n?!e:e){var u=n||e;i.push("Q"),i.push(u.x),i.push(u.y)}return n||e||i.push("L"),i.push(r.x),i.push(r.y),i.join(" ")}function xt(t,n,e,r){var i=arguments.length>4&&void 0!==arguments[4]?arguments[4]:1,u=wt(t,n,e,r),o=bt(u);try{return o(i)}catch(t){return null}}function At(t,n,e){return t+(n-t)*e}function kt(t,n,e){var r=arguments.length>3&&void 0!==arguments[3]&&arguments[3],i={x:At(t.x,n.x,e),y:At(t.y,n.y,e)};return r&&(i.a=_t(t,n)),i}function _t(t,n){return Math.atan2(n.y-t.y,n.x-t.x)}function St(t,n,e,r){var i=1-r;return i*i*t+2*i*r*n+r*r*e}function Ot(t,n,e,r){return 2*(1-r)*(n-t)+2*r*(e-n)}function jt(t,n,e,r){var i=arguments.length>4&&void 0!==arguments[4]&&arguments[4],u=xt(t,n,null,e,r);return u||(u={x:St(t.x,n.x,e.x,r),y:St(t.y,n.y,e.y,r)}),i&&(u.a=Mt(t,n,e,r)),u}function Mt(t,n,e,r){return Math.atan2(Ot(t.y,n.y,e.y,r),Ot(t.x,n.x,e.x,r))}function Pt(t,n,e,r,i){var u=i*i;return i*u*(r-t+3*(n-e))+3*u*(t+e-2*n)+3*i*(n-t)+t}function Et(t,n,e,r,i){var u=1-i;return 3*(u*u*(n-t)+2*u*i*(e-n)+i*i*(r-e))}function It(t,n,e,r,i){var u=arguments.length>5&&void 0!==arguments[5]&&arguments[5],o=xt(t,n,e,r,i);return o||(o={x:Pt(t.x,n.x,e.x,r.x,i),y:Pt(t.y,n.y,e.y,r.y,i)}),u&&(o.a=Rt(t,n,e,r,i)),o}function Rt(t,n,e,r,i){return Math.atan2(Et(t.y,n.y,e.y,r.y,i),Et(t.x,n.x,e.x,r.x,i))}function Ft(t,n,e){var r=arguments.length>3&&void 0!==arguments[3]&&arguments[3];if(Tt(n)){if(qt(e))return jt(n,e.start,e,t,r)}else if(Tt(e)){if(Bt(n))return jt(n,n.end,e,t,r)}else{if(Bt(n))return qt(e)?It(n,n.end,e.start,e,t,r):jt(n,n.end,e,t,r);if(qt(e))return jt(n,e.start,e,t,r)}return kt(n,e,t,r)}function Nt(t,n,e){var r=Ft(t,n,e,!0);return r.a=function(t){return arguments.length>1&&void 0!==arguments[1]&&arguments[1]?t+Math.PI:t}(r.a)/m,r}function Tt(t){return!t.type||"corner"===t.type}function qt(t){return null!=t.start&&!Tt(t)}function Bt(t){return null!=t.end&&!Tt(t)}var Lt=new N;var Ct={f:ft,i:q},Dt={f:ft,i:L};function zt(t,n,e){return t.map((function(t){return function(t,n,e){var r=t.v;if(!r||"g"!==r.t||r.s||!r.v||!r.r)return t;var i=e.getElementById(r.r),u=i&&i.querySelectorAll("stop")||[];return r.s=r.v.map((function(t,n){var e=u[n]&&u[n].getAttribute("offset");return{c:t,o:e=d(parseInt(e)/100)}})),delete r.v,t}(t,0,e)}))}var Vt={gt:"gradientTransform",c:{x:"cx",y:"cy"},rd:"r",f:{x:"x1",y:"y1"},to:{x:"x2",y:"y2"}};function Gt(t,n,r,i,u,o,a,l){return zt(t,0,l),n=function(t,n,e){for(var r,i,u,o=t.length-1,a={},l=0;l<=o;l++)(r=t[l]).e&&(r.e=n(r.e)),r.v&&"g"===(i=r.v).t&&i.r&&(u=e.getElementById(i.r))&&(a[i.r]={e:u,s:u.querySelectorAll("stop")});return a}(t,i,l),function(i){var u=r(i,t,Yt);if(!u)return"none";if("c"===u.t)return ht(u.v);if("g"===u.t){if(!n[u.r])return vt(u.r);var o=n[u.r];return function(t,n){for(var e=t.s,r=e.length;r<n.length;r++){var i=e[e.length-1].cloneNode();i.id=Qt(i.id),t.e.appendChild(i),e=t.s=t.e.querySelectorAll("stop")}for(var u=0,o=e.length,a=n.length-1;u<o;u++)e[u].setAttribute("stop-color",ht(n[Math.min(u,a)].c)),e[u].setAttribute("offset",n[Math.min(u,a)].o)}(o,u.s),Object.keys(Vt).forEach((function(t){if(void 0!==u[t])if("object"!==e(Vt[t])){var n,r="gt"===t?(n=u[t],Array.isArray(n)?"matrix("+n.join(" ")+")":""):u[t],i=Vt[t];o.e.setAttribute(i,r)}else Object.keys(Vt[t]).forEach((function(n){if(void 0!==u[t][n]){var e=u[t][n],r=Vt[t][n];o.e.setAttribute(r,e)}}))})),vt(u.r)}return"none"}}function Yt(t,e,r){if(0===t)return e;if(1===t)return r;if(e&&r){var i=e.t;if(i===r.t)switch(e.t){case"c":return{t:i,v:z(t,e.v,r.v)};case"g":if(e.r===r.r){var u={t:i,s:$t(t,e.s,r.s),r:e.r};return e.gt&&r.gt&&(u.gt=function(t,n,e){var r=n.length;if(r!==e.length)return T(t,n,e);for(var i=new Array(r),u=0;u<r;u++)i[u]=q(t,n[u],e[u]);return i}(t,e.gt,r.gt)),e.c?(u.c=C(t,e.c,r.c),u.rd=B(t,e.rd,r.rd)):e.f&&(u.f=C(t,e.f,r.f),u.to=C(t,e.to,r.to)),u}}if("c"===e.t&&"g"===r.t||"c"===r.t&&"g"===e.t){var o="c"===e.t?e:r,a="g"===e.t?n({},e):n({},r),l=a.s.map((function(t){return{c:o.v,o:t.o}}));return a.s="c"===e.t?$t(t,l,a.s):$t(t,a.s,l),a}}return T(t,e,r)}function $t(t,n,e){if(n.length===e.length)return n.map((function(n,r){return Ut(t,n,e[r])}));for(var r=Math.max(n.length,e.length),i=[],u=0;u<r;u++){var o=Ut(t,n[Math.min(u,n.length-1)],e[Math.min(u,e.length-1)]);i.push(o)}return i}function Ut(t,n,e){return{o:L(t,n.o,e.o||0),c:z(t,n.c,e.c||{})}}function Qt(t){return t.replace(/-fill-([0-9]+)$/,(function(t,n){return"-fill-"+(+n+1)}))}var Ht={fill:Gt,"fill-opacity":Dt,stroke:Gt,"stroke-opacity":Dt,"stroke-width":Ct,"stroke-dashoffset":{f:ft,i:q},"stroke-dasharray":{f:function(t){var n=arguments.length>1&&void 0!==arguments[1]?arguments[1]:" ";return t&&t.length>0&&(t=t.map((function(t){return d(t,4)}))),ct(t,n)},i:function(t,n,e){var r,i,u,o=n.length,a=e.length;if(o!==a)if(0===o)n=V(o=a,0);else if(0===a)a=o,e=V(o,0);else{var l=(u=(r=o)*(i=a)/function(t,n){for(var e;n;)e=n,n=t%n,t=e;return t||1}(r,i))<0?-u:u;n=G(n,Math.floor(l/o)),e=G(e,Math.floor(l/a)),o=a=l}for(var s=[],f=0;f<o;f++)s.push(d(B(t,n[f],e[f])));return s}},opacity:Dt,transform:function(t,n,r,i){if(!(t=function(t,n){if(!t||"object"!==e(t))return null;var r=!1;for(var i in t)t.hasOwnProperty(i)&&(t[i]&&t[i].length?(t[i].forEach((function(t){t.e&&(t.e=n(t.e))})),r=!0):delete t[i]);return r?t:null}(t,i)))return null;var u=function(e,i,u){var o=arguments.length>3&&void 0!==arguments[3]?arguments[3]:null;return t[e]?r(i,t[e],u):n&&n[e]?n[e]:o};return n&&n.a&&t.o?function(n){var e=r(n,t.o,Nt);return Lt.recomposeSelf(e,u("r",n,q,0)+e.a,u("k",n,C),u("s",n,C),u("t",n,C)).toString()}:function(t){return Lt.recomposeSelf(u("o",t,Ft,null),u("r",t,q,0),u("k",t,C),u("s",t,C),u("t",t,C)).toString()}},r:Ct,"#size":gt,"#radius":yt,_:function(t,n){if(Array.isArray(t))for(var e=0;e<t.length;e++)this[t[e]]=n;else this[t]=n}},Jt=function(t){!function(t,n){if("function"!=typeof n&&null!==n)throw new TypeError("Super expression must either be null or a function");t.prototype=Object.create(n&&n.prototype,{constructor:{value:t,writable:!0,configurable:!0}}),n&&l(t,n)}(o,t);var n,e,i=(n=o,e=s(),function(){var t,r=a(n);if(e){var i=a(this).constructor;t=Reflect.construct(r,arguments,i)}else t=r.apply(this,arguments);return c(this,t)});function o(){return r(this,o),i.apply(this,arguments)}return u(o,null,[{key:"build",value:function(t){var n=h(a(o),"build",this).call(this,t,Ht);if(!n)return null;n.el,n.options,function(t,n,e){t.play()}(n.player)}}]),o}(st);return Jt.init(),Jt}));
(function(s,i,o,w,a,b){w[o]=w[o]||{};w[o][s]=w[o][s]||[];w[o][s].push(i);})('5c7f360c',{"root":"eyRGjfTC2mS1","version":"2022-05-04","animations":[{"elements":{"eyRGjfTC2mS2":{"transform":{"data":{"o":{"x":373.048188,"y":345.282441,"type":"corner"},"t":{"x":-373.048188,"y":-345.28244}},"keys":{"r":[{"t":0,"v":-360},{"t":8000,"v":0}]}}}},"s":"MQDA1M2QzN2FiY2NkY2HFiOWNjYzFjN01jNjdKhSTkyOTA4ODg4ODg4NNFY3YWJjYzFjYWJkYLmJjY2MxYzdjNjdhOTDI4OTg0N2FjMWNjYmRLjYWI5Y2NMYzFjN2M2VY2I3YTkyODg4NDdhYQmVjMWM0YzQ3YTkyODMk4NDdhYjljNGNjYmRVLY2FjNmI5Y2NiZDdhDOTJiZWI5YzRjYmJkOGDQ3YWNiYzhiZGJkYmKM3YUU5Mjg5ZDU/"}],"options":"MTDAxMDg4MmZMODA4MTKZlN2Y4MTJmNDcyZjcD5N2M2ZTcxMmY4YQ|"},'__SVGATOR_PLAYER__',window)]]></script></svg>